<?xml version="1.0" encoding="utf-8"?>
<!-- Generator: Adobe Illustrator 16.0.0, SVG Export Plug-In . SVG Version: 6.00 Build 0)  -->
<!DOCTYPE svg PUBLIC "-//W3C//DTD SVG 1.1//EN" "http://www.w3.org/Graphics/SVG/1.1/DTD/svg11.dtd">
<svg version="1.1" id="Layer_2" xmlns="http://www.w3.org/2000/svg" xmlns:xlink="http://www.w3.org/1999/xlink" x="0px" y="0px"
	 width="985.001px" height="697.207px" viewBox="0 0 985.001 697.207" enable-background="new 0 0 985.001 697.207"
	 xml:space="preserve">
<g opacity="0.3">
	<path opacity="0.5" fill="#FFFFFF" d="M492.561,499.523l-0.002-1c0.996-0.001,1.99-0.011,2.981-0.03l0.02,1
		C494.562,499.513,493.562,499.522,492.561,499.523z M489.559,499.495c-1.002-0.02-2.001-0.049-2.999-0.087l0.039-1
		c0.99,0.038,1.983,0.067,2.979,0.087L489.559,499.495z M498.552,499.404l-0.039-1c0.995-0.038,1.987-0.087,2.978-0.146l0.059,0.998
		C500.553,499.315,499.553,499.364,498.552,499.404z M483.563,499.263c-1-0.059-1.997-0.127-2.993-0.205l0.078-0.996
		c0.988,0.076,1.979,0.145,2.974,0.203L483.563,499.263z M504.543,499.051l-0.08-0.996c0.992-0.08,1.982-0.168,2.97-0.266
		l0.098,0.996C506.537,498.883,505.541,498.971,504.543,499.051z M477.582,498.796c-0.998-0.099-1.992-0.206-2.982-0.324
		l0.117-0.992c0.984,0.116,1.972,0.224,2.963,0.32L477.582,498.796z M510.513,498.46l-0.119-0.992
		c0.989-0.118,1.975-0.246,2.957-0.382l0.137,0.99C512.499,498.214,511.508,498.342,510.513,498.46z M471.623,498.091
		c-0.993-0.137-1.982-0.284-2.968-0.44l0.156-0.988c0.979,0.156,1.963,0.302,2.948,0.438L471.623,498.091z M516.455,497.634
		l-0.158-0.988c0.983-0.156,1.962-0.322,2.938-0.499l0.178,0.984C518.43,497.308,517.444,497.476,516.455,497.634z M465.697,497.15
		c-0.986-0.177-1.969-0.362-2.948-0.559l0.195-0.98c0.974,0.194,1.95,0.38,2.929,0.555L465.697,497.15z M522.361,496.57l-0.197-0.98
		c0.976-0.195,1.947-0.401,2.916-0.616l0.217,0.977C524.322,496.167,523.343,496.373,522.361,496.57z M459.812,495.974
		c-0.979-0.216-1.953-0.441-2.924-0.676l0.236-0.973c0.963,0.234,1.932,0.458,2.902,0.672L459.812,495.974z M528.219,495.271
		l-0.236-0.973c0.967-0.234,1.931-0.479,2.89-0.731l0.256,0.967C530.161,494.789,529.191,495.035,528.219,495.271z M453.98,494.562
		c-0.969-0.255-1.934-0.52-2.894-0.793l0.273-0.961c0.955,0.271,1.913,0.534,2.875,0.787L453.98,494.562z M534.021,493.74
		l-0.275-0.961c0.956-0.273,1.909-0.556,2.857-0.848l0.295,0.955C535.942,493.181,534.983,493.465,534.021,493.74z M448.209,492.919
		c-0.961-0.295-1.918-0.599-2.871-0.912l0.312-0.949c0.946,0.312,1.897,0.613,2.852,0.906L448.209,492.919z M539.757,491.977
		l-0.312-0.949c0.945-0.312,1.885-0.632,2.821-0.961l0.332,0.943C541.655,491.341,540.708,491.663,539.757,491.977z
		 M442.486,491.039c-0.948-0.333-1.891-0.675-2.831-1.025l0.35-0.938c0.934,0.349,1.871,0.688,2.812,1.02L442.486,491.039z
		 M545.417,489.987l-0.35-0.938c0.931-0.348,1.857-0.706,2.78-1.073l0.369,0.93C547.288,489.275,546.355,489.636,545.417,489.987z
		 M436.847,488.931c-0.933-0.37-1.862-0.75-2.786-1.139l0.388-0.922c0.918,0.387,1.84,0.763,2.768,1.131L436.847,488.931z
		 M550.982,487.773l-0.387-0.922c0.912-0.384,1.821-0.776,2.726-1.179l0.406,0.914C552.817,486.991,551.902,487.388,550.982,487.773
		z M431.299,486.599c-0.917-0.407-1.829-0.824-2.737-1.248l0.424-0.906c0.902,0.422,1.808,0.835,2.719,1.24L431.299,486.599z
		 M556.447,485.346l-0.424-0.906c0.897-0.42,1.79-0.85,2.677-1.287l0.443,0.896C558.249,484.49,557.351,484.922,556.447,485.346z
		 M425.851,484.047c-0.899-0.443-1.794-0.896-2.684-1.356l0.46-0.889c0.884,0.458,1.772,0.907,2.666,1.349L425.851,484.047z
		 M561.812,482.701l-0.459-0.889c0.881-0.455,1.756-0.92,2.625-1.393l0.479,0.879C563.58,481.774,562.699,482.242,561.812,482.701z
		 M420.512,481.28c-0.881-0.479-1.756-0.966-2.627-1.462l0.495-0.869c0.865,0.492,1.734,0.977,2.609,1.452L420.512,481.28z
		 M567.071,479.843l-0.494-0.869c0.862-0.49,1.719-0.99,2.569-1.497l0.512,0.859C568.802,478.847,567.939,479.349,567.071,479.843z
		 M415.289,478.304c-0.86-0.514-1.715-1.036-2.564-1.564l0.528-0.85c0.844,0.526,1.693,1.045,2.549,1.555L415.289,478.304z
		 M572.215,476.778l-0.529-0.85c0.843-0.524,1.679-1.057,2.509-1.598l0.547,0.838C573.905,475.714,573.063,476.25,572.215,476.778z
		 M410.19,475.123c-0.839-0.547-1.672-1.103-2.5-1.666l0.562-0.826c0.822,0.56,1.65,1.111,2.484,1.654L410.19,475.123z
		 M577.235,473.509l-0.562-0.826c0.82-0.559,1.636-1.125,2.444-1.698l0.578,0.816C578.881,472.378,578.062,472.946,577.235,473.509z
		 M405.224,471.743c-0.816-0.579-1.627-1.167-2.431-1.762l0.595-0.805c0.799,0.591,1.604,1.175,2.416,1.752L405.224,471.743z
		 M582.122,470.044l-0.596-0.804c0.799-0.592,1.591-1.189,2.376-1.795l0.611,0.793C583.723,468.848,582.925,469.449,582.122,470.044
		z M400.398,468.169c-0.793-0.611-1.579-1.23-2.359-1.857l0.626-0.779c0.775,0.623,1.557,1.238,2.344,1.846L400.398,468.169z
		 M586.869,466.387l-0.625-0.781c0.774-0.62,1.542-1.249,2.305-1.886l0.641,0.768C588.423,465.128,587.649,465.761,586.869,466.387z
		 M395.717,464.409c-0.768-0.642-1.529-1.292-2.283-1.949l0.657-0.754c0.749,0.653,1.505,1.298,2.268,1.936L395.717,464.409z
		 M591.472,462.543l-0.656-0.754c0.749-0.652,1.492-1.312,2.229-1.978l0.67,0.742C592.974,461.224,592.227,461.887,591.472,462.543z
		 M391.191,460.467c-0.741-0.672-1.475-1.351-2.203-2.036l0.686-0.729c0.723,0.682,1.453,1.356,2.189,2.024L391.191,460.467z
		 M595.919,458.52l-0.686-0.729c0.724-0.681,1.439-1.368,2.149-2.063l0.699,0.715C597.368,457.142,596.646,457.835,595.919,458.52z
		 M386.825,456.35c-0.714-0.7-1.421-1.407-2.121-2.122l0.714-0.699c0.696,0.709,1.398,1.412,2.107,2.108L386.825,456.35z
		 M600.204,454.322l-0.715-0.701c0.696-0.709,1.386-1.425,2.068-2.147l0.727,0.688C601.598,452.888,600.904,453.607,600.204,454.322
		z M382.626,452.066c-0.685-0.728-1.363-1.463-2.034-2.203l0.741-0.672c0.667,0.736,1.34,1.466,2.021,2.189L382.626,452.066z
		 M604.322,449.958l-0.74-0.672c0.669-0.736,1.328-1.479,1.981-2.228l0.754,0.656C605.66,448.47,604.995,449.218,604.322,449.958z
		 M378.601,447.621c-0.656-0.753-1.305-1.514-1.946-2.281l0.768-0.641c0.636,0.762,1.281,1.517,1.932,2.266L378.601,447.621z
		 M608.268,445.435l-0.768-0.643c0.638-0.762,1.269-1.53,1.892-2.306l0.779,0.627C609.544,443.893,608.909,444.667,608.268,445.435z
		 M374.755,443.02c-0.625-0.778-1.243-1.563-1.853-2.354l0.792-0.611c0.606,0.787,1.22,1.566,1.841,2.341L374.755,443.02z
		 M612.028,440.755l-0.791-0.611c0.608-0.786,1.208-1.58,1.8-2.379l0.803,0.596C613.244,439.165,612.641,439.963,612.028,440.755z
		 M371.097,438.274c-0.594-0.803-1.18-1.611-1.758-2.428l0.816-0.578c0.574,0.811,1.156,1.613,1.746,2.41L371.097,438.274z
		 M615.604,435.93l-0.814-0.58c0.576-0.811,1.145-1.627,1.704-2.449l0.826,0.562C616.756,434.291,616.184,435.113,615.604,435.93z
		 M367.629,433.388c-0.562-0.825-1.115-1.656-1.66-2.494l0.838-0.545c0.542,0.832,1.091,1.657,1.649,2.477L367.629,433.388z
		 M618.985,430.965l-0.838-0.547c0.543-0.833,1.079-1.672,1.606-2.516l0.848,0.529C620.07,429.281,619.532,430.126,618.985,430.965z
		 M364.359,428.37c-0.528-0.847-1.048-1.699-1.559-2.557l0.858-0.512c0.508,0.852,1.024,1.698,1.549,2.539L364.359,428.37z
		 M622.167,425.867l-0.857-0.514c0.511-0.854,1.012-1.713,1.505-2.578l0.869,0.496C623.187,424.143,622.682,425.008,622.167,425.867
		z M361.292,423.229c-0.494-0.866-0.979-1.738-1.456-2.614l0.878-0.479c0.474,0.87,0.956,1.736,1.447,2.597L361.292,423.229z
		 M625.147,420.646l-0.879-0.479c0.477-0.874,0.943-1.753,1.401-2.638l0.889,0.461C626.097,418.881,625.626,419.766,625.147,420.646
		z M358.432,417.971c-0.458-0.885-0.909-1.774-1.351-2.67l0.896-0.443c0.439,0.89,0.886,1.773,1.342,2.652L358.432,417.971z
		 M627.916,415.306l-0.896-0.441c0.439-0.893,0.872-1.79,1.295-2.692l0.906,0.425C628.794,413.504,628.359,414.407,627.916,415.306z
		 M355.785,412.605c-0.423-0.901-0.837-1.808-1.243-2.72l0.913-0.406c0.404,0.906,0.815,1.807,1.235,2.702L355.785,412.605z
		 M630.47,409.861l-0.914-0.406c0.404-0.911,0.8-1.825,1.187-2.743l0.922,0.387C631.275,408.024,630.876,408.944,630.47,409.861z
		 M353.354,407.143c-0.386-0.917-0.764-1.84-1.133-2.767l0.93-0.369c0.366,0.921,0.741,1.836,1.125,2.747L353.354,407.143z
		 M632.803,404.312l-0.93-0.369c0.368-0.926,0.728-1.855,1.076-2.789l0.938,0.35C633.534,402.445,633.173,403.381,632.803,404.312z
		 M351.14,401.578c-0.351-0.937-0.693-1.876-1.025-2.821l0.943-0.332c0.331,0.939,0.67,1.873,1.019,2.802L351.14,401.578z
		 M634.914,398.675l-0.943-0.332c0.33-0.939,0.651-1.884,0.964-2.832l0.949,0.312C635.569,396.777,635.246,397.728,634.914,398.675z
		 M349.147,395.917c-0.313-0.948-0.617-1.901-0.912-2.858l0.956-0.295c0.292,0.951,0.594,1.898,0.905,2.841L349.147,395.917z
		 M636.796,392.952l-0.955-0.295c0.292-0.947,0.574-1.9,0.847-2.856l0.961,0.273C637.374,391.038,637.09,391.997,636.796,392.952z
		 M347.382,390.182c-0.275-0.961-0.541-1.925-0.796-2.894l0.967-0.256c0.254,0.963,0.518,1.92,0.791,2.874L347.382,390.182z
		 M638.442,387.184l-0.967-0.256c0.253-0.959,0.496-1.923,0.73-2.89l0.973,0.236C638.942,385.247,638.697,386.217,638.442,387.184z
		 M345.848,384.381c-0.236-0.97-0.462-1.943-0.68-2.922l0.977-0.217c0.216,0.972,0.441,1.938,0.675,2.902L345.848,384.381z
		 M639.856,381.35l-0.977-0.215c0.213-0.969,0.419-1.941,0.614-2.917l0.98,0.197C640.277,379.396,640.071,380.375,639.856,381.35z
		 M344.547,378.522c-0.197-0.979-0.384-1.962-0.562-2.946l0.984-0.178c0.176,0.979,0.363,1.954,0.559,2.927L344.547,378.522z
		 M641.035,375.467l-0.984-0.176c0.175-0.977,0.341-1.956,0.497-2.939l0.988,0.158C641.378,373.499,641.212,374.484,641.035,375.467
		z M343.482,372.617c-0.158-0.985-0.306-1.975-0.444-2.968l0.99-0.139c0.138,0.987,0.285,1.969,0.441,2.948L343.482,372.617z
		 M641.977,369.542l-0.99-0.139c0.137-0.982,0.264-1.968,0.381-2.955l0.992,0.117C642.242,367.561,642.115,368.552,641.977,369.542z
		 M342.653,366.676c-0.118-0.992-0.227-1.986-0.326-2.982l0.995-0.1c0.098,0.99,0.207,1.979,0.324,2.963L342.653,366.676z
		 M642.685,363.583l-0.996-0.098c0.098-0.987,0.186-1.977,0.264-2.97l0.996,0.078C642.87,361.593,642.782,362.59,642.685,363.583z
		 M342.06,360.704c-0.079-0.995-0.148-1.992-0.208-2.992l0.998-0.061c0.06,0.994,0.128,1.985,0.207,2.975L342.06,360.704z
		 M643.154,357.6l-0.998-0.059c0.059-0.989,0.107-1.981,0.146-2.977l1,0.039C643.262,355.604,643.213,356.604,643.154,357.6z
		 M341.703,354.714c-0.04-0.995-0.07-1.992-0.09-2.992l1-0.021c0.021,0.994,0.05,1.985,0.089,2.975L341.703,354.714z
		 M643.389,351.605l-1-0.02c0.02-0.991,0.029-1.984,0.029-2.98v-0.237h1v0.237C643.418,349.607,643.408,350.608,643.389,351.605z
		 M342.582,348.722h-1l0-0.123c0-0.956,0.009-1.917,0.027-2.878l1,0.02c-0.018,0.953-0.027,1.908-0.027,2.865L342.582,348.722z
		 M642.385,345.39c-0.022-0.994-0.053-1.985-0.093-2.974l1-0.041c0.04,0.994,0.07,1.991,0.093,2.991L642.385,345.39z
		 M342.694,342.763l-0.999-0.039c0.038-1.001,0.086-2,0.145-2.996l0.998,0.059C342.78,340.774,342.732,341.768,342.694,342.763z
		 M642.142,339.438c-0.06-0.994-0.13-1.985-0.208-2.973l0.996-0.08c0.08,0.995,0.15,1.992,0.21,2.992L642.142,339.438z
		 M343.04,336.812l-0.997-0.078c0.078-0.999,0.166-1.995,0.263-2.989l0.995,0.098C343.204,334.828,343.117,335.818,343.04,336.812z
		 M641.668,333.497c-0.1-0.99-0.209-1.978-0.327-2.963l0.992-0.119c0.12,0.991,0.229,1.986,0.329,2.982L641.668,333.497z
		 M343.62,330.879l-0.993-0.117c0.117-0.995,0.244-1.988,0.381-2.977l0.99,0.137C343.862,328.904,343.736,329.89,343.62,330.879z
		 M640.956,327.579c-0.139-0.985-0.286-1.968-0.443-2.947l0.986-0.158c0.159,0.985,0.309,1.974,0.447,2.967L640.956,327.579z
		 M344.434,324.974l-0.987-0.156c0.157-0.99,0.323-1.977,0.499-2.958l0.984,0.176C344.755,323.011,344.59,323.991,344.434,324.974z
		 M640.01,321.694c-0.177-0.979-0.364-1.955-0.561-2.928l0.98-0.197c0.198,0.979,0.386,1.961,0.564,2.947L640.01,321.694z
		 M345.483,319.106l-0.98-0.195c0.196-0.982,0.401-1.962,0.616-2.937l0.977,0.215C345.883,317.158,345.678,318.13,345.483,319.106z
		 M638.829,315.852c-0.216-0.971-0.441-1.938-0.677-2.901l0.971-0.238c0.237,0.971,0.465,1.944,0.683,2.923L638.829,315.852z
		 M346.767,313.286l-0.972-0.234c0.235-0.975,0.479-1.944,0.734-2.91l0.967,0.254C347.243,311.355,347,312.319,346.767,313.286z
		 M637.417,310.062c-0.255-0.961-0.52-1.919-0.793-2.873l0.961-0.275c0.275,0.96,0.542,1.924,0.799,2.893L637.417,310.062z
		 M348.282,307.521l-0.962-0.273c0.274-0.963,0.557-1.923,0.85-2.878l0.956,0.293C348.835,305.611,348.554,306.563,348.282,307.521z
		 M635.774,304.332c-0.294-0.951-0.597-1.896-0.908-2.839l0.949-0.314c0.313,0.948,0.618,1.901,0.914,2.858L635.774,304.332z
		 M350.03,301.811l-0.95-0.312c0.313-0.954,0.636-1.904,0.968-2.851l0.943,0.33C350.662,299.918,350.341,300.862,350.03,301.811z
		 M633.901,298.673c-0.33-0.938-0.671-1.871-1.02-2.801l0.936-0.352c0.353,0.936,0.695,1.876,1.027,2.82L633.901,298.673z
		 M352.009,296.165l-0.937-0.35c0.351-0.94,0.712-1.878,1.081-2.81l0.93,0.369C352.716,294.3,352.358,295.23,352.009,296.165z
		 M631.805,293.094c-0.366-0.92-0.742-1.836-1.127-2.747l0.922-0.389c0.387,0.917,0.765,1.839,1.135,2.765L631.805,293.094z
		 M354.213,290.607l-0.922-0.387c0.388-0.926,0.786-1.848,1.193-2.763l0.914,0.406C354.994,288.773,354.599,289.688,354.213,290.607
		z M629.495,287.622c-0.403-0.905-0.815-1.806-1.235-2.701l0.904-0.425c0.424,0.901,0.838,1.808,1.245,2.719L629.495,287.622z
		 M356.637,285.144l-0.906-0.424c0.425-0.909,0.859-1.812,1.302-2.712l0.897,0.442C357.491,283.343,357.06,284.241,356.637,285.144z
		 M626.971,282.245c-0.439-0.889-0.888-1.772-1.344-2.651l0.887-0.461c0.46,0.884,0.91,1.774,1.354,2.668L626.971,282.245z
		 M359.276,279.784l-0.888-0.46c0.461-0.891,0.931-1.776,1.409-2.656l0.879,0.478C360.201,278.02,359.734,278.899,359.276,279.784z
		 M624.229,276.97c-0.475-0.871-0.957-1.736-1.448-2.596l0.867-0.496c0.495,0.866,0.981,1.737,1.46,2.614L624.229,276.97z
		 M362.127,274.536l-0.869-0.495c0.496-0.871,1-1.737,1.514-2.597l0.859,0.512C363.121,272.811,362.62,273.671,362.127,274.536z
		 M621.282,271.806c-0.51-0.852-1.026-1.697-1.552-2.538l0.848-0.53c0.529,0.846,1.05,1.698,1.562,2.555L621.282,271.806z
		 M365.185,269.407l-0.849-0.529c0.53-0.85,1.068-1.695,1.615-2.534l0.838,0.546C366.246,267.723,365.711,268.562,365.185,269.407z
		 M618.129,266.762c-0.543-0.831-1.093-1.656-1.651-2.476l0.826-0.563c0.562,0.825,1.116,1.655,1.663,2.492L618.129,266.762z
		 M368.442,264.406l-0.827-0.562c0.563-0.828,1.135-1.651,1.714-2.467l0.815,0.579C369.569,262.766,369.001,263.583,368.442,264.406
		z M614.777,261.844c-0.574-0.809-1.157-1.612-1.748-2.409l0.803-0.596c0.595,0.803,1.182,1.611,1.76,2.425L614.777,261.844z
		 M371.894,259.539l-0.804-0.595c0.595-0.805,1.198-1.604,1.81-2.396l0.792,0.611C373.084,257.945,372.485,258.739,371.894,259.539z
		 M611.234,257.062c-0.607-0.786-1.222-1.565-1.844-2.339l0.779-0.627c0.626,0.778,1.244,1.563,1.855,2.354L611.234,257.062z
		 M375.537,254.814l-0.78-0.626c0.626-0.78,1.261-1.555,1.902-2.322l0.768,0.642C376.789,253.27,376.159,254.039,375.537,254.814z
		 M607.501,252.42c-0.637-0.761-1.281-1.516-1.934-2.265l0.754-0.657c0.656,0.753,1.305,1.513,1.947,2.279L607.501,252.42z
		 M379.36,250.239l-0.754-0.656c0.657-0.755,1.321-1.503,1.992-2.245l0.741,0.671C380.673,248.746,380.013,249.489,379.36,250.239z
		 M603.587,247.929c-0.666-0.736-1.341-1.465-2.021-2.187l0.727-0.687c0.687,0.727,1.365,1.461,2.037,2.203L603.587,247.929z
		 M383.362,245.82l-0.728-0.686c0.686-0.728,1.379-1.449,2.079-2.164l0.714,0.7C384.732,244.38,384.044,245.097,383.362,245.82z
		 M599.5,243.596c-0.696-0.709-1.399-1.411-2.108-2.106l0.699-0.715c0.715,0.7,1.422,1.407,2.122,2.121L599.5,243.596z
		 M387.534,241.563l-0.7-0.714c0.714-0.7,1.435-1.393,2.162-2.079l0.686,0.728C388.959,240.179,388.243,240.868,387.534,241.563z
		 M595.241,239.425c-0.724-0.681-1.453-1.355-2.19-2.022l0.672-0.741c0.741,0.671,1.477,1.35,2.204,2.036L595.241,239.425z
		 M391.87,237.476l-0.672-0.741c0.741-0.671,1.488-1.335,2.242-1.992l0.657,0.754C393.348,236.15,392.605,236.809,391.87,237.476z
		 M590.819,235.424c-0.749-0.652-1.506-1.296-2.269-1.934l0.641-0.768c0.769,0.641,1.529,1.291,2.284,1.947L590.819,235.424z
		 M396.362,233.563l-0.642-0.767c0.766-0.642,1.539-1.275,2.318-1.901l0.626,0.779C397.891,232.297,397.124,232.927,396.362,233.563
		z M586.244,231.602c-0.776-0.622-1.558-1.237-2.346-1.844l0.611-0.792c0.792,0.611,1.579,1.229,2.359,1.855L586.244,231.602z
		 M401.004,229.834l-0.61-0.792c0.791-0.61,1.587-1.212,2.39-1.807l0.596,0.804C402.582,228.629,401.79,229.228,401.004,229.834z
		 M581.517,227.961c-0.799-0.591-1.604-1.174-2.416-1.749l0.578-0.816c0.817,0.579,1.629,1.166,2.434,1.761L581.517,227.961z
		 M405.789,226.291l-0.579-0.815c0.814-0.578,1.633-1.148,2.46-1.711l0.562,0.827C407.411,225.15,406.597,225.717,405.789,226.291z
		 M576.649,224.511c-0.822-0.559-1.65-1.11-2.484-1.653l0.545-0.838c0.84,0.546,1.674,1.101,2.502,1.664L576.649,224.511z
		 M410.707,222.942l-0.546-0.838c0.836-0.545,1.678-1.082,2.525-1.611l0.529,0.849C412.374,221.867,411.538,222.4,410.707,222.942z
		 M571.646,221.255c-0.844-0.525-1.693-1.043-2.549-1.553l0.512-0.859c0.861,0.513,1.717,1.034,2.566,1.563L571.646,221.255z
		 M415.753,219.792l-0.513-0.858c0.856-0.512,1.718-1.015,2.586-1.509l0.495,0.869C417.46,218.784,416.604,219.284,415.753,219.792z
		 M566.519,218.201c-0.865-0.492-1.735-0.976-2.61-1.451l0.477-0.879c0.881,0.478,1.757,0.965,2.628,1.46L566.519,218.201z
		 M420.918,216.845l-0.479-0.878c0.875-0.477,1.756-0.945,2.642-1.405l0.461,0.888C422.663,215.906,421.788,216.372,420.918,216.845
		z M561.271,215.352c-0.885-0.457-1.773-0.906-2.668-1.346l0.441-0.897c0.9,0.443,1.795,0.895,2.686,1.354L561.271,215.352z
		 M426.194,214.107l-0.443-0.896c0.894-0.441,1.792-0.874,2.695-1.298l0.425,0.905C427.974,213.239,427.081,213.668,426.194,214.107
		z M555.907,212.714c-0.902-0.421-1.809-0.834-2.72-1.238l0.406-0.914c0.917,0.407,1.829,0.822,2.737,1.246L555.907,212.714z
		 M431.572,211.583l-0.407-0.913c0.91-0.405,1.824-0.802,2.743-1.189l0.389,0.921C433.384,210.787,432.476,211.18,431.572,211.583z
		 M550.442,210.292c-0.918-0.385-1.841-0.761-2.769-1.128l0.369-0.93c0.934,0.37,1.862,0.749,2.786,1.136L550.442,210.292z
		 M437.044,209.275l-0.37-0.929c0.928-0.37,1.861-0.731,2.798-1.083l0.352,0.937C438.893,208.549,437.966,208.908,437.044,209.275z
		 M544.885,208.091c-0.934-0.348-1.87-0.688-2.812-1.018l0.33-0.943c0.948,0.332,1.893,0.673,2.832,1.023L544.885,208.091z
		 M442.625,207.18l-0.333-0.943c0.942-0.332,1.888-0.655,2.839-0.969l0.313,0.949C444.5,206.529,443.56,206.85,442.625,207.18z
		 M539.238,206.113c-0.946-0.311-1.897-0.612-2.853-0.904l0.293-0.956c0.961,0.294,1.918,0.597,2.872,0.91L539.238,206.113z
		 M448.284,205.312l-0.295-0.956c0.955-0.294,1.914-0.579,2.876-0.855l0.275,0.961C450.185,204.735,449.232,205.019,448.284,205.312
		z M533.527,204.366c-0.953-0.271-1.912-0.532-2.875-0.785l0.254-0.967c0.969,0.254,1.934,0.518,2.895,0.79L533.527,204.366z
		 M454.015,203.67l-0.256-0.967c0.965-0.256,1.935-0.502,2.908-0.739l0.236,0.972C455.936,203.171,454.974,203.416,454.015,203.67z
		 M527.761,202.854c-0.965-0.232-1.933-0.456-2.904-0.669l0.215-0.977c0.978,0.215,1.953,0.44,2.924,0.674L527.761,202.854z
		 M459.806,202.26l-0.217-0.977c0.975-0.217,1.953-0.424,2.936-0.622l0.197,0.98C461.747,201.838,460.774,202.044,459.806,202.26z
		 M521.939,201.573c-0.974-0.194-1.949-0.378-2.929-0.553l0.176-0.984c0.985,0.176,1.969,0.361,2.948,0.557L521.939,201.573z
		 M465.647,201.082l-0.178-0.984c0.982-0.178,1.968-0.346,2.957-0.504l0.158,0.987C467.604,200.738,466.624,200.905,465.647,201.082
		z M516.072,200.526c-0.98-0.154-1.963-0.299-2.949-0.436l0.137-0.99c0.992,0.136,1.982,0.282,2.969,0.438L516.072,200.526z
		 M471.534,200.138l-0.139-0.99c0.988-0.138,1.98-0.267,2.975-0.386l0.119,0.993C473.501,199.873,472.517,200.001,471.534,200.138z
		 M510.167,199.713c-0.983-0.115-1.972-0.221-2.963-0.318l0.098-0.995c0.997,0.097,1.991,0.204,2.982,0.32L510.167,199.713z
		 M477.452,199.43l-0.1-0.995c0.994-0.099,1.99-0.188,2.988-0.268l0.08,0.997C479.429,199.243,478.438,199.332,477.452,199.43z
		 M504.235,199.136c-0.989-0.077-1.98-0.144-2.975-0.201l0.059-0.998c1,0.058,1.997,0.125,2.992,0.202L504.235,199.136z
		 M483.395,198.956l-0.061-0.998c0.997-0.06,1.996-0.11,2.997-0.15l0.041,0.999C485.377,198.847,484.384,198.896,483.395,198.956z
		 M498.283,198.793c-0.99-0.038-1.983-0.065-2.979-0.084l0.02-1c1.002,0.019,2.001,0.046,2.999,0.085L498.283,198.793z
		 M489.345,198.717l-0.021-1c0.998-0.021,1.998-0.031,3-0.033l0.002,1C491.329,198.686,490.335,198.696,489.345,198.717z"/>
	<path opacity="0.8" fill="#E1392C" d="M491.043,478.188c-1.009-0.011-2.014-0.033-3.016-0.067l0.035-1
		c0.994,0.034,1.991,0.057,2.99,0.067L491.043,478.188z M494.058,478.187l-0.012-1c0.998-0.012,1.994-0.035,2.987-0.069l0.035,1
		C496.067,478.151,495.063,478.175,494.058,478.187z M485.017,477.982c-1.006-0.057-2.009-0.125-3.009-0.206l0.08-0.996
		c0.992,0.079,1.987,0.147,2.985,0.204L485.017,477.982z M500.079,477.978l-0.057-0.998c0.998-0.058,1.993-0.127,2.985-0.206
		l0.08,0.996C502.088,477.851,501.085,477.92,500.079,477.978z M479.006,477.501c-1.002-0.104-2.001-0.219-2.996-0.345l0.127-0.992
		c0.987,0.126,1.979,0.239,2.973,0.343L479.006,477.501z M506.091,477.491l-0.104-0.994c0.994-0.104,1.984-0.218,2.972-0.345
		l0.127,0.992C508.091,477.271,507.093,477.388,506.091,477.491z M473.024,476.741c-0.996-0.149-1.988-0.312-2.977-0.484
		l0.172-0.984c0.98,0.171,1.965,0.331,2.953,0.48L473.024,476.741z M512.07,476.728l-0.15-0.988c0.988-0.15,1.973-0.311,2.953-0.482
		l0.174,0.984C514.059,476.415,513.066,476.577,512.07,476.728z M467.084,475.703c-0.987-0.196-1.971-0.403-2.95-0.622l0.217-0.977
		c0.974,0.217,1.949,0.424,2.929,0.618L467.084,475.703z M518.01,475.684l-0.195-0.98c0.979-0.195,1.955-0.401,2.927-0.62
		l0.219,0.977C519.98,475.278,518.997,475.486,518.01,475.684z M461.199,474.391c-0.978-0.242-1.95-0.496-2.919-0.761l0.264-0.965
		c0.961,0.263,1.926,0.515,2.896,0.755L461.199,474.391z M523.895,474.367l-0.242-0.971c0.97-0.242,1.936-0.494,2.896-0.757
		l0.264,0.965C525.844,473.869,524.872,474.123,523.895,474.367z M455.381,472.802c-0.964-0.289-1.924-0.588-2.878-0.896
		l0.308-0.951c0.948,0.307,1.9,0.604,2.858,0.889L455.381,472.802z M529.711,472.773l-0.287-0.957
		c0.956-0.287,1.909-0.584,2.856-0.892l0.309,0.951C531.634,472.186,530.675,472.484,529.711,472.773z M449.635,470.938
		c-0.953-0.334-1.901-0.679-2.843-1.034l0.353-0.936c0.936,0.352,1.876,0.694,2.822,1.026L449.635,470.938z M535.446,470.91
		l-0.332-0.943c0.943-0.331,1.88-0.672,2.812-1.024l0.354,0.936C537.34,470.232,536.396,470.577,535.446,470.91z M443.974,468.805
		c-0.936-0.379-1.865-0.767-2.791-1.166l0.396-0.918c0.917,0.396,1.84,0.781,2.769,1.156L443.974,468.805z M541.086,468.78
		l-0.375-0.928c0.924-0.372,1.84-0.756,2.751-1.149l0.396,0.918C542.939,468.019,542.016,468.404,541.086,468.78z M438.422,466.407
		c-0.916-0.422-1.826-0.853-2.731-1.295l0.439-0.898c0.897,0.438,1.801,0.867,2.71,1.285L438.422,466.407z M546.604,466.396
		l-0.418-0.908c0.903-0.416,1.803-0.843,2.695-1.278l0.439,0.898C548.42,465.547,547.515,465.976,546.604,466.396z M552.006,463.758
		l-0.461-0.889c0.885-0.458,1.763-0.926,2.635-1.403l0.48,0.877C553.782,462.824,552.896,463.296,552.006,463.758z M432.992,463.755
		c-0.895-0.464-1.784-0.938-2.667-1.421l0.48-0.877c0.876,0.479,1.758,0.949,2.646,1.409L432.992,463.755z M557.282,460.866
		l-0.502-0.865c0.862-0.499,1.719-1.007,2.568-1.524l0.52,0.854C559.013,459.852,558.15,460.363,557.282,460.866z M427.693,460.852
		c-0.872-0.505-1.737-1.02-2.596-1.543l0.521-0.854c0.852,0.52,1.711,1.03,2.577,1.531L427.693,460.852z M562.419,457.734
		l-0.539-0.842c0.838-0.538,1.67-1.086,2.494-1.643l0.561,0.828C564.103,456.641,563.265,457.192,562.419,457.734z M422.538,457.707
		c-0.847-0.544-1.688-1.099-2.521-1.662l0.56-0.828c0.828,0.56,1.661,1.108,2.501,1.648L422.538,457.707z M567.408,454.365
		l-0.578-0.816c0.813-0.576,1.618-1.162,2.417-1.757l0.598,0.802C569.04,453.193,568.229,453.783,567.408,454.365z M417.537,454.327
		c-0.82-0.583-1.634-1.175-2.44-1.775l0.598-0.803c0.8,0.597,1.607,1.185,2.421,1.762L417.537,454.327z M572.239,450.766
		l-0.615-0.787c0.785-0.614,1.562-1.236,2.333-1.868l0.635,0.773C573.814,449.52,573.03,450.147,572.239,450.766z M412.699,450.718
		c-0.792-0.619-1.577-1.249-2.354-1.887l0.635-0.773c0.771,0.634,1.55,1.258,2.336,1.873L412.699,450.718z M576.898,446.948
		l-0.652-0.758c0.756-0.65,1.506-1.309,2.247-1.976l0.668,0.744C578.414,445.63,577.66,446.294,576.898,446.948z M408.035,446.891
		c-0.762-0.655-1.517-1.32-2.264-1.994l0.669-0.742c0.742,0.668,1.491,1.327,2.247,1.979L408.035,446.891z M581.378,442.917
		l-0.686-0.729c0.726-0.684,1.443-1.376,2.152-2.076l0.703,0.711C582.833,441.529,582.109,442.228,581.378,442.917z
		 M403.555,442.853c-0.731-0.689-1.454-1.388-2.168-2.095l0.703-0.711c0.709,0.701,1.427,1.394,2.152,2.079L403.555,442.853z
		 M585.668,438.681l-0.719-0.695c0.693-0.718,1.379-1.442,2.056-2.176l0.734,0.68C587.057,437.227,586.367,437.957,585.668,438.681z
		 M399.268,438.614c-0.698-0.723-1.388-1.453-2.069-2.193l0.736-0.678c0.675,0.734,1.359,1.459,2.052,2.176L399.268,438.614z
		 M589.759,434.25l-0.75-0.662c0.66-0.749,1.312-1.505,1.953-2.268l0.766,0.643C591.08,432.733,590.425,433.495,589.759,434.25z
		 M395.182,434.182c-0.664-0.754-1.318-1.516-1.964-2.285l0.766-0.643c0.641,0.764,1.291,1.52,1.95,2.268L395.182,434.182z
		 M593.642,429.632l-0.779-0.625c0.624-0.778,1.24-1.564,1.846-2.357l0.795,0.607C594.892,428.056,594.271,428.848,593.642,429.632z
		 M391.307,429.567c-0.627-0.783-1.246-1.574-1.856-2.372l0.795-0.607c0.605,0.792,1.219,1.577,1.841,2.354L391.307,429.567z
		 M597.308,424.84l-0.809-0.588c0.588-0.808,1.166-1.621,1.735-2.442l0.822,0.57C598.483,423.207,597.899,424.026,597.308,424.84z
		 M387.651,424.781c-0.59-0.812-1.171-1.63-1.744-2.455l0.822-0.57c0.567,0.819,1.145,1.632,1.73,2.438L387.651,424.781z
		 M600.746,419.88l-0.834-0.551c0.55-0.835,1.09-1.674,1.621-2.521l0.848,0.531C601.846,418.192,601.302,419.039,600.746,419.88z
		 M384.222,419.833c-0.552-0.838-1.095-1.682-1.627-2.532l0.848-0.531c0.529,0.845,1.067,1.683,1.615,2.513L384.222,419.833z
		 M603.956,414.762l-0.859-0.51c0.51-0.859,1.011-1.725,1.502-2.596l0.871,0.492C604.975,413.025,604.47,413.896,603.956,414.762z
		 M381.027,414.731c-0.512-0.862-1.015-1.729-1.508-2.604l0.871-0.491c0.489,0.867,0.988,1.729,1.496,2.583L381.027,414.731z
		 M606.922,409.5l-0.883-0.471c0.47-0.882,0.93-1.77,1.38-2.662l0.893,0.449C607.859,407.717,607.396,408.61,606.922,409.5z
		 M378.073,409.489c-0.471-0.885-0.932-1.774-1.383-2.671l0.893-0.449c0.448,0.889,0.905,1.772,1.373,2.649L378.073,409.489z
		 M375.369,404.119c-0.429-0.904-0.849-1.814-1.258-2.73l0.913-0.408c0.406,0.91,0.822,1.812,1.248,2.709L375.369,404.119z
		 M609.639,404.103l-0.902-0.43c0.429-0.902,0.847-1.811,1.254-2.725l0.914,0.408C610.493,402.276,610.071,403.192,609.639,404.103z
		 M372.917,398.631c-0.386-0.923-0.762-1.852-1.128-2.785l0.931-0.365c0.364,0.927,0.737,1.849,1.12,2.764L372.917,398.631z
		 M612.102,398.582l-0.922-0.387c0.386-0.922,0.762-1.849,1.126-2.781l0.932,0.363C612.869,396.718,612.491,397.652,612.102,398.582
		z M370.724,393.026c-0.344-0.942-0.677-1.891-1-2.845l0.947-0.32c0.32,0.946,0.651,1.887,0.993,2.822L370.724,393.026z
		 M614.306,392.948l-0.939-0.342c0.341-0.939,0.673-1.885,0.994-2.834l0.947,0.32C614.984,391.05,614.65,392.001,614.306,392.948z
		 M368.79,387.314c-0.3-0.958-0.588-1.921-0.866-2.89l0.961-0.275c0.276,0.961,0.562,1.916,0.859,2.866L368.79,387.314z
		 M616.242,387.213l-0.955-0.297c0.297-0.952,0.583-1.907,0.857-2.867l0.961,0.275C616.829,385.292,616.541,386.255,616.242,387.213
		z M367.126,381.519c-0.254-0.971-0.498-1.946-0.729-2.927l0.973-0.23c0.231,0.973,0.472,1.94,0.725,2.903L367.126,381.519z
		 M617.9,381.416l-0.967-0.252c0.252-0.965,0.492-1.933,0.722-2.904l0.973,0.23C618.396,379.47,618.154,380.445,617.9,381.416z
		 M365.736,375.65c-0.208-0.981-0.405-1.966-0.591-2.956l0.982-0.186c0.185,0.982,0.38,1.961,0.587,2.935L365.736,375.65z
		 M619.286,375.548l-0.979-0.207c0.206-0.975,0.4-1.952,0.585-2.935l0.982,0.184C619.69,373.58,619.494,374.565,619.286,375.548z
		 M364.622,369.726c-0.162-0.99-0.313-1.984-0.453-2.981l0.99-0.139c0.139,0.989,0.289,1.976,0.45,2.958L364.622,369.726z
		 M620.395,369.621l-0.986-0.162c0.16-0.982,0.309-1.969,0.447-2.958l0.99,0.139C620.707,367.637,620.557,368.631,620.395,369.621z
		 M363.785,363.753c-0.116-0.996-0.221-1.996-0.314-2.999l0.996-0.092c0.092,0.995,0.196,1.987,0.312,2.976L363.785,363.753z
		 M621.227,363.647l-0.994-0.115c0.115-0.988,0.219-1.98,0.31-2.976l0.996,0.092C621.445,361.651,621.342,362.651,621.227,363.647z
		 M363.228,357.749c-0.069-1-0.127-2.004-0.175-3.011l0.999-0.047c0.047,0.999,0.105,1.995,0.174,2.987L363.228,357.749z
		 M621.78,357.644l-0.998-0.068c0.068-0.992,0.126-1.988,0.172-2.987l0.998,0.045C621.906,355.64,621.849,356.644,621.78,357.644z
		 M362.946,351.727c-0.023-1.002-0.036-2.007-0.037-3.016l1-0.001c0.001,1.002,0.013,1.999,0.037,2.993L362.946,351.727z
		 M622.057,351.621l-1-0.023c0.022-0.995,0.034-1.992,0.034-2.992l-0.001-0.215h1l0.001,0.208
		C622.091,349.613,622.079,350.618,622.057,351.621z M363.942,345.718l-1-0.021c0.022-1.008,0.056-2.013,0.101-3.014l0.999,0.045
		C363.997,343.721,363.964,344.718,363.942,345.718z M621.051,345.399c-0.024-0.999-0.061-1.996-0.106-2.99l0.998-0.047
		c0.048,1.002,0.084,2.007,0.108,3.014L621.051,345.399z M364.21,339.74l-0.998-0.068c0.069-1.005,0.149-2.007,0.24-3.006
		l0.996,0.092C364.358,337.749,364.278,338.743,364.21,339.74z M620.768,339.423c-0.069-0.997-0.151-1.991-0.245-2.981l0.996-0.094
		c0.094,0.998,0.176,2,0.247,3.005L620.768,339.423z M364.754,333.782l-0.993-0.113c0.115-1.001,0.241-1.998,0.379-2.991l0.99,0.137
		C364.994,331.8,364.868,332.789,364.754,333.782z M620.211,333.466c-0.117-0.992-0.245-1.981-0.384-2.967l0.99-0.141
		c0.141,0.993,0.269,1.99,0.386,2.99L620.211,333.466z M365.575,327.855l-0.987-0.16c0.161-0.994,0.334-1.984,0.518-2.971
		l0.983,0.184C365.906,325.887,365.735,326.869,365.575,327.855z M619.374,327.541c-0.163-0.985-0.337-1.968-0.521-2.946
		l0.982-0.186c0.187,0.986,0.362,1.977,0.525,2.97L619.374,327.541z M366.671,321.972l-0.979-0.205
		c0.208-0.985,0.426-1.967,0.656-2.943l0.974,0.229C367.094,320.021,366.876,320.994,366.671,321.972z M618.263,321.661
		c-0.207-0.977-0.427-1.949-0.657-2.917l0.973-0.232c0.232,0.978,0.454,1.958,0.663,2.942L618.263,321.661z M368.041,316.148
		l-0.968-0.252c0.253-0.975,0.518-1.944,0.793-2.909l0.962,0.275C368.554,314.22,368.292,315.182,368.041,316.148z M616.88,315.841
		c-0.255-0.967-0.52-1.928-0.795-2.885l0.961-0.277c0.277,0.965,0.544,1.934,0.801,2.906L616.88,315.841z M369.682,310.395
		l-0.955-0.297c0.3-0.965,0.611-1.925,0.933-2.879l0.947,0.318C370.288,308.485,369.979,309.438,369.682,310.395z M615.223,310.091
		c-0.298-0.952-0.607-1.9-0.928-2.845l0.947-0.32c0.322,0.95,0.634,1.906,0.936,2.866L615.223,310.091z M371.599,304.704
		l-0.94-0.342c0.345-0.949,0.7-1.893,1.066-2.831l0.932,0.363C372.293,302.825,371.94,303.763,371.599,304.704z M613.301,304.426
		c-0.343-0.938-0.697-1.871-1.062-2.798l0.932-0.365c0.366,0.935,0.723,1.874,1.069,2.819L613.301,304.426z M373.779,299.112
		l-0.923-0.385c0.389-0.932,0.788-1.857,1.198-2.776l0.913,0.406C374.561,297.271,374.165,298.188,373.779,299.112z
		 M611.119,298.866c-0.386-0.918-0.781-1.829-1.187-2.736l0.912-0.408c0.409,0.913,0.807,1.832,1.196,2.756L611.119,298.866z
		 M376.219,293.632l-0.903-0.428c0.431-0.911,0.873-1.817,1.325-2.716l0.894,0.449C377.085,291.83,376.647,292.729,376.219,293.632z
		 M608.684,293.423c-0.429-0.898-0.866-1.792-1.313-2.679l0.893-0.451c0.451,0.895,0.893,1.794,1.323,2.7L608.684,293.423z
		 M378.912,288.274l-0.883-0.47c0.474-0.89,0.957-1.773,1.451-2.65l0.871,0.491C379.861,286.515,379.381,287.391,378.912,288.274z
		 M605.994,288.096c-0.471-0.878-0.949-1.75-1.438-2.616l0.871-0.491c0.492,0.873,0.975,1.751,1.447,2.636L605.994,288.096z
		 M381.851,283.05l-0.86-0.511c0.515-0.866,1.039-1.726,1.572-2.578l0.848,0.53C382.88,281.337,382.36,282.19,381.851,283.05z
		 M603.06,282.897c-0.51-0.856-1.029-1.705-1.559-2.548l0.848-0.531c0.533,0.849,1.057,1.705,1.57,2.568L603.06,282.897z
		 M385.029,277.97l-0.835-0.55c0.554-0.841,1.117-1.674,1.689-2.502l0.822,0.569C386.137,276.308,385.579,277.136,385.029,277.97z
		 M599.884,277.838c-0.549-0.832-1.107-1.656-1.675-2.474l0.822-0.57c0.571,0.824,1.134,1.655,1.687,2.493L599.884,277.838z
		 M388.438,273.046l-0.809-0.588c0.592-0.814,1.193-1.621,1.804-2.42l0.795,0.607C389.623,271.438,389.026,272.238,388.438,273.046z
		 M596.478,272.93c-0.587-0.806-1.183-1.604-1.788-2.395l0.795-0.607c0.609,0.797,1.211,1.602,1.802,2.413L596.478,272.93z
		 M392.072,268.285l-0.78-0.625c0.629-0.785,1.267-1.562,1.913-2.333l0.766,0.643C393.329,266.734,392.696,267.506,392.072,268.285z
		 M592.847,268.184c-0.625-0.778-1.257-1.548-1.898-2.311l0.766-0.644c0.646,0.769,1.283,1.544,1.912,2.328L592.847,268.184z
		 M395.921,263.701l-0.751-0.66c0.665-0.755,1.337-1.502,2.019-2.241l0.735,0.678C397.248,262.21,396.58,262.952,395.921,263.701z
		 M588.997,263.607c-0.659-0.748-1.327-1.488-2.003-2.221l0.734-0.679c0.682,0.738,1.354,1.484,2.019,2.238L588.997,263.607z
		 M399.978,259.3l-0.72-0.694c0.698-0.723,1.404-1.438,2.119-2.145l0.703,0.711C401.371,257.874,400.67,258.583,399.978,259.3z
		 M584.938,259.214c-0.693-0.718-1.396-1.426-2.104-2.126l0.703-0.712c0.715,0.706,1.421,1.42,2.12,2.143L584.938,259.214z
		 M404.231,255.093l-0.687-0.727c0.73-0.689,1.468-1.371,2.215-2.044l0.67,0.743C405.688,253.732,404.956,254.409,404.231,255.093z
		 M580.682,255.01c-0.727-0.684-1.46-1.36-2.202-2.027l0.67-0.743c0.746,0.672,1.485,1.353,2.218,2.043L580.682,255.01z
		 M408.673,251.089l-0.652-0.758c0.761-0.655,1.53-1.301,2.307-1.938l0.635,0.772C410.192,249.798,409.429,250.439,408.673,251.089z
		 M576.231,251.007c-0.757-0.65-1.521-1.292-2.293-1.924l0.633-0.773c0.778,0.637,1.55,1.283,2.312,1.938L576.231,251.007z
		 M413.293,247.295l-0.616-0.787c0.79-0.619,1.587-1.229,2.393-1.83l0.598,0.802C414.869,246.077,414.078,246.682,413.293,247.295z
		 M571.603,247.212c-0.787-0.614-1.581-1.22-2.382-1.816l0.598-0.802c0.807,0.601,1.606,1.211,2.399,1.83L571.603,247.212z
		 M418.083,243.721l-0.579-0.815c0.817-0.581,1.643-1.153,2.475-1.715l0.56,0.828C419.713,242.577,418.895,243.144,418.083,243.721z
		 M566.798,243.636c-0.814-0.577-1.636-1.146-2.463-1.704l0.559-0.829c0.835,0.563,1.662,1.136,2.482,1.718L566.798,243.636z
		 M423.032,240.373l-0.541-0.841c0.843-0.542,1.693-1.076,2.55-1.599l0.521,0.854C424.712,239.306,423.868,239.834,423.032,240.373z
		 M561.833,240.286c-0.841-0.539-1.688-1.069-2.541-1.589l0.52-0.854c0.86,0.524,1.714,1.058,2.561,1.601L561.833,240.286z
		 M428.127,237.26l-0.501-0.865c0.867-0.502,1.74-0.995,2.62-1.478l0.481,0.877C429.855,236.273,428.988,236.762,428.127,237.26z
		 M556.714,237.168c-0.864-0.499-1.735-0.989-2.613-1.468l0.48-0.878c0.884,0.483,1.761,0.977,2.633,1.48L556.714,237.168z
		 M433.361,234.388L432.9,233.5c0.889-0.461,1.785-0.913,2.686-1.354l0.439,0.898C435.131,233.482,434.243,233.931,433.361,234.388z
		 M551.454,234.293c-0.889-0.459-1.781-0.908-2.68-1.346l0.438-0.898c0.906,0.441,1.807,0.894,2.701,1.356L551.454,234.293z
		 M438.719,231.765l-0.419-0.908c0.909-0.419,1.824-0.828,2.744-1.227l0.397,0.918C440.528,230.943,439.621,231.349,438.719,231.765
		z M546.064,231.664c-0.909-0.417-1.822-0.823-2.742-1.219l0.396-0.919c0.926,0.399,1.847,0.809,2.763,1.229L546.064,231.664z
		 M444.191,229.395l-0.376-0.927c0.93-0.377,1.866-0.745,2.807-1.101l0.354,0.936C446.042,228.656,445.114,229.021,444.191,229.395z
		 M540.554,229.292c-0.928-0.374-1.859-0.737-2.797-1.09l0.352-0.936c0.945,0.355,1.885,0.721,2.818,1.098L540.554,229.292z
		 M449.786,227.276l-0.332-0.943c0.947-0.333,1.899-0.656,2.855-0.968l0.311,0.951C451.67,226.625,450.726,226.946,449.786,227.276z
		 M534.935,227.178c-0.944-0.33-1.893-0.649-2.847-0.958l0.309-0.951c0.96,0.311,1.916,0.632,2.868,0.964L534.935,227.178z
		 M455.475,225.422l-0.287-0.958c0.962-0.289,1.927-0.566,2.897-0.833l0.266,0.964C457.388,224.86,456.429,225.136,455.475,225.422z
		 M529.23,225.334c-0.954-0.284-1.913-0.557-2.877-0.819l0.262-0.965c0.972,0.264,1.938,0.54,2.9,0.826L529.23,225.334z
		 M461.244,223.837l-0.242-0.97c0.974-0.243,1.952-0.475,2.933-0.696l0.221,0.976C463.181,223.365,462.21,223.596,461.244,223.837z
		 M523.457,223.763c-0.967-0.239-1.938-0.467-2.912-0.684l0.217-0.977c0.982,0.219,1.961,0.449,2.936,0.689L523.457,223.763z
		 M467.082,222.524l-0.197-0.98c0.983-0.197,1.972-0.383,2.963-0.558l0.174,0.984C469.038,222.144,468.058,222.329,467.082,222.524z
		 M517.618,222.463c-0.977-0.193-1.958-0.376-2.942-0.547l0.172-0.985c0.992,0.172,1.979,0.356,2.964,0.551L517.618,222.463z
		 M472.974,221.485l-0.15-0.988c0.991-0.151,1.986-0.291,2.985-0.419l0.127,0.992C474.944,221.197,473.957,221.335,472.974,221.485z
		 M511.723,221.439c-0.984-0.148-1.973-0.285-2.964-0.41l0.125-0.992c0.999,0.126,1.995,0.263,2.987,0.413L511.723,221.439z
		 M478.908,220.722l-0.105-0.994c0.997-0.105,1.998-0.199,3.002-0.281l0.082,0.997C480.891,220.525,479.897,220.618,478.908,220.722
		z M505.786,220.689c-0.99-0.102-1.983-0.192-2.979-0.271l0.078-0.997c1.004,0.08,2.005,0.171,3.003,0.273L505.786,220.689z
		 M484.872,220.235l-0.059-0.998c1.001-0.059,2.005-0.105,3.012-0.141l0.035,0.999C486.861,220.13,485.865,220.177,484.872,220.235z
		 M499.821,220.216c-0.993-0.056-1.989-0.1-2.988-0.133l0.033-0.999c1.007,0.033,2.011,0.078,3.012,0.134L499.821,220.216z
		 M490.848,220.022l-0.012-1c1.003-0.012,2.011-0.013,3.015-0.004l-0.01,1C492.844,220.008,491.843,220.01,490.848,220.022z"/>
	<path opacity="0.5" fill="#FFFFFF" d="M492.548,454.269v-1c1,0,1.996-0.015,2.989-0.043l0.029,1
		C494.563,454.254,493.558,454.269,492.548,454.269z M489.532,454.228c-1.009-0.027-2.014-0.07-3.015-0.126l0.057-0.998
		c0.991,0.056,1.986,0.097,2.985,0.124L489.532,454.228z M498.579,454.096l-0.055-0.998c0.998-0.056,1.99-0.127,2.979-0.211
		l0.086,0.996C500.591,453.969,499.587,454.04,498.579,454.096z M483.509,453.891c-1.005-0.084-2.006-0.184-3.003-0.296l0.113-0.994
		c0.987,0.112,1.979,0.21,2.974,0.294L483.509,453.891z M504.592,453.585l-0.113-0.994c0.992-0.112,1.98-0.24,2.964-0.381
		l0.143,0.99C506.592,453.343,505.594,453.471,504.592,453.585z M477.514,453.214c-0.998-0.142-1.992-0.298-2.981-0.467l0.17-0.986
		c0.979,0.169,1.964,0.323,2.952,0.463L477.514,453.214z M510.565,452.73l-0.17-0.986c0.983-0.169,1.964-0.353,2.938-0.549
		l0.197,0.98C512.547,452.374,511.559,452.56,510.565,452.73z M471.566,452.194c-0.988-0.198-1.972-0.41-2.95-0.637l0.227-0.975
		c0.969,0.225,1.942,0.435,2.921,0.631L471.566,452.194z M516.479,451.536l-0.227-0.975c0.974-0.226,1.94-0.464,2.901-0.717
		l0.254,0.967C518.437,451.066,517.46,451.309,516.479,451.536z M465.687,450.837c-0.974-0.255-1.943-0.523-2.907-0.806l0.281-0.959
		c0.954,0.278,1.914,0.545,2.88,0.798L465.687,450.837z M522.314,450.004l-0.281-0.959c0.958-0.282,1.909-0.576,2.855-0.884
		l0.309,0.951C524.243,449.422,523.282,449.72,522.314,450.004z M459.896,449.143c-0.962-0.312-1.917-0.637-2.867-0.976l0.336-0.941
		c0.94,0.335,1.888,0.656,2.84,0.966L459.896,449.143z M528.052,448.139l-0.336-0.941c0.939-0.336,1.873-0.685,2.8-1.046
		l0.363,0.932C529.942,447.448,529.001,447.801,528.052,448.139z M454.194,447.111c-0.94-0.366-1.875-0.745-2.804-1.138l0.39-0.922
		c0.919,0.389,1.845,0.766,2.777,1.128L454.194,447.111z M533.665,445.95l-0.391-0.92c0.916-0.389,1.824-0.789,2.727-1.202
		l0.416,0.91C535.507,445.155,534.589,445.56,533.665,445.95z M448.622,444.756c-0.918-0.42-1.828-0.853-2.732-1.298l0.441-0.896
		c0.895,0.439,1.797,0.868,2.707,1.284L448.622,444.756z M539.136,443.447l-0.443-0.896c0.893-0.44,1.778-0.893,2.656-1.356
		l0.467,0.885C540.93,442.547,540.036,443.003,539.136,443.447z M443.197,442.085c-0.892-0.472-1.776-0.955-2.653-1.451l0.493-0.871
		c0.868,0.492,1.744,0.972,2.626,1.438L443.197,442.085z M544.457,440.634l-0.492-0.869c0.865-0.491,1.724-0.993,2.574-1.507
		l0.518,0.855C546.198,439.633,545.332,440.139,544.457,440.634z M437.936,439.108c-0.862-0.521-1.717-1.054-2.564-1.6l0.542-0.84
		c0.838,0.54,1.685,1.067,2.539,1.584L437.936,439.108z M549.612,437.52l-0.541-0.84c0.837-0.54,1.666-1.09,2.486-1.651l0.564,0.824
		C551.294,436.42,550.457,436.976,549.612,437.52z M432.857,435.838c-0.831-0.568-1.653-1.149-2.467-1.741l0.588-0.809
		c0.806,0.586,1.621,1.161,2.444,1.726L432.857,435.838z M554.584,434.116l-0.588-0.809c0.805-0.586,1.602-1.183,2.389-1.79
		l0.611,0.791C556.201,432.922,555.396,433.524,554.584,434.116z M427.974,432.285c-0.797-0.615-1.584-1.241-2.363-1.879
		l0.634-0.773c0.771,0.632,1.552,1.252,2.341,1.861L427.974,432.285z M559.355,430.433l-0.633-0.773
		c0.771-0.63,1.532-1.271,2.285-1.924l0.654,0.756C560.903,429.149,560.134,429.797,559.355,430.433z M423.303,428.461
		c-0.76-0.659-1.511-1.33-2.252-2.011l0.677-0.736c0.734,0.675,1.478,1.338,2.23,1.991L423.303,428.461z M563.915,426.485
		l-0.677-0.736c0.733-0.675,1.458-1.358,2.172-2.052l0.697,0.717C565.386,425.115,564.655,425.805,563.915,426.485z
		 M418.858,424.379c-0.721-0.7-1.432-1.412-2.133-2.133l0.717-0.697c0.694,0.715,1.399,1.419,2.114,2.113L418.858,424.379z
		 M568.24,422.282l-0.717-0.697c0.695-0.714,1.379-1.438,2.054-2.172l0.736,0.677C569.633,420.831,568.941,421.562,568.24,422.282z
		 M414.654,420.054c-0.68-0.74-1.35-1.49-2.008-2.251l0.756-0.654c0.652,0.753,1.315,1.495,1.989,2.229L414.654,420.054z
		 M572.325,417.84l-0.756-0.654c0.653-0.754,1.296-1.516,1.928-2.287l0.773,0.635C573.633,416.311,572.984,417.08,572.325,417.84z
		 M410.703,415.497c-0.636-0.776-1.262-1.563-1.877-2.359l0.791-0.611c0.609,0.788,1.229,1.567,1.859,2.338L410.703,415.497z
		 M576.149,413.169l-0.791-0.611c0.61-0.789,1.209-1.587,1.796-2.393l0.809,0.59C577.37,411.568,576.766,412.374,576.149,413.169z
		 M407.018,410.728c-0.591-0.812-1.17-1.632-1.739-2.462l0.825-0.564c0.563,0.822,1.137,1.635,1.722,2.438L407.018,410.728z
		 M579.706,408.29l-0.824-0.566c0.564-0.822,1.116-1.653,1.657-2.491l0.84,0.541C580.834,406.621,580.276,407.46,579.706,408.29z
		 M403.611,405.757c-0.543-0.844-1.075-1.695-1.595-2.555l0.855-0.518c0.515,0.852,1.042,1.695,1.581,2.531L403.611,405.757z
		 M582.979,403.211l-0.855-0.518c0.516-0.854,1.021-1.714,1.512-2.583l0.871,0.492C584.01,401.479,583.501,402.35,582.979,403.211z
		 M400.495,400.603c-0.494-0.872-0.977-1.752-1.446-2.642l0.884-0.467c0.466,0.88,0.943,1.752,1.433,2.616L400.495,400.603z
		 M585.958,397.952l-0.885-0.467c0.467-0.882,0.921-1.771,1.363-2.668l0.896,0.443C586.887,396.165,586.429,397.062,585.958,397.952
		z M397.68,395.282c-0.443-0.898-0.874-1.804-1.292-2.717l0.909-0.416c0.415,0.903,0.841,1.801,1.28,2.691L397.68,395.282z
		 M588.629,392.527l-0.908-0.416c0.415-0.908,0.817-1.821,1.208-2.742l0.92,0.391C589.456,390.688,589.05,391.611,588.629,392.527z
		 M395.174,389.814c-0.391-0.922-0.769-1.85-1.134-2.785l0.932-0.363c0.361,0.926,0.736,1.846,1.123,2.758L395.174,389.814z
		 M590.988,386.957l-0.932-0.363c0.362-0.93,0.712-1.866,1.049-2.809l0.941,0.336C591.708,385.073,591.354,386.018,590.988,386.957z
		 M392.983,384.202c-0.338-0.945-0.664-1.897-0.976-2.854l0.951-0.311c0.309,0.949,0.631,1.892,0.966,2.829L392.983,384.202z
		 M593.022,381.256l-0.951-0.309c0.307-0.946,0.601-1.898,0.882-2.855l0.959,0.281C593.629,379.34,593.333,380.3,593.022,381.256z
		 M391.114,378.465c-0.283-0.963-0.553-1.932-0.809-2.906l0.967-0.254c0.254,0.965,0.521,1.924,0.802,2.879L391.114,378.465z
		 M594.72,375.466l-0.967-0.254c0.251-0.962,0.49-1.929,0.716-2.902l0.975,0.227C595.216,373.518,594.975,374.494,594.72,375.466z
		 M389.58,372.629c-0.228-0.978-0.441-1.961-0.642-2.948l0.98-0.199c0.198,0.979,0.41,1.953,0.635,2.921L389.58,372.629z
		 M596.081,369.587l-0.98-0.197c0.196-0.975,0.379-1.955,0.548-2.938l0.986,0.17C596.464,367.614,596.279,368.603,596.081,369.587z
		 M388.383,366.716c-0.171-0.989-0.328-1.981-0.471-2.979l0.99-0.143c0.142,0.988,0.297,1.973,0.466,2.952L388.383,366.716z
		 M597.103,363.64l-0.99-0.143c0.141-0.983,0.268-1.972,0.38-2.964l0.994,0.113C597.372,361.648,597.245,362.646,597.103,363.64z
		 M387.527,360.743c-0.114-0.997-0.214-1.997-0.3-3.002l0.996-0.086c0.085,0.995,0.185,1.987,0.297,2.975L387.527,360.743z
		 M597.783,357.645l-0.996-0.084c0.083-0.99,0.153-1.984,0.21-2.981l0.998,0.057C597.938,355.643,597.868,356.645,597.783,357.645z
		 M387.012,354.732c-0.058-1-0.101-2.005-0.13-3.014l1-0.029c0.029,0.999,0.072,1.994,0.128,2.986L387.012,354.732z
		 M598.122,351.623l-1-0.029c0.028-0.993,0.042-1.989,0.042-2.988v-0.195h1v0.195C598.164,349.614,598.15,350.62,598.122,351.623z
		 M387.16,348.67l-0.324-0.057c0-0.984,0.013-1.957,0.04-2.929l1,0.027c-0.026,0.962-0.04,1.927-0.04,2.894L387.16,348.67z
		 M597.116,345.422c-0.03-0.999-0.073-1.994-0.131-2.985l0.998-0.059c0.058,1.001,0.103,2.006,0.133,3.015L597.116,345.422z
		 M387.999,342.725L387,342.67c0.056-1.007,0.125-2.011,0.209-3.011l0.996,0.084C388.123,340.733,388.054,341.728,387.999,342.725z
		 M596.77,339.456c-0.087-0.995-0.187-1.986-0.301-2.974l0.994-0.115c0.114,0.997,0.216,1.998,0.303,3.003L596.77,339.456z
		 M388.498,336.771l-0.994-0.111c0.113-1.002,0.24-2,0.38-2.994l0.99,0.141C388.735,334.79,388.609,335.778,388.498,336.771z
		 M596.084,333.518c-0.143-0.988-0.299-1.972-0.469-2.95l0.984-0.172c0.172,0.988,0.33,1.981,0.475,2.979L596.084,333.518z
		 M389.335,330.853l-0.985-0.168c0.169-0.994,0.353-1.983,0.551-2.968l0.98,0.197C389.686,328.889,389.504,329.868,389.335,330.853z
		 M595.062,327.63c-0.199-0.979-0.412-1.951-0.639-2.919l0.975-0.229c0.229,0.978,0.443,1.96,0.645,2.948L595.062,327.63z
		 M390.511,324.992l-0.975-0.225c0.226-0.982,0.466-1.959,0.72-2.931l0.968,0.254C390.972,323.053,390.735,324.02,390.511,324.992z
		 M593.703,321.81c-0.255-0.966-0.522-1.925-0.805-2.878l0.959-0.283c0.284,0.963,0.556,1.932,0.812,2.905L593.703,321.81z
		 M392.02,319.211l-0.96-0.281c0.283-0.967,0.579-1.929,0.888-2.884l0.951,0.309C392.593,317.3,392.3,318.252,392.02,319.211z
		 M592.011,316.078c-0.31-0.948-0.633-1.892-0.969-2.827l0.941-0.338c0.34,0.945,0.665,1.896,0.979,2.854L592.011,316.078z
		 M393.864,313.516l-0.942-0.336c0.339-0.951,0.69-1.897,1.056-2.837l0.932,0.363C394.547,311.636,394.199,312.572,393.864,313.516z
		 M589.993,310.453c-0.362-0.926-0.737-1.845-1.125-2.758l0.92-0.391c0.392,0.921,0.771,1.85,1.137,2.783L589.993,310.453z
		 M396.034,307.929l-0.921-0.389c0.392-0.931,0.798-1.854,1.217-2.77l0.909,0.416C396.825,306.093,396.423,307.008,396.034,307.929z
		 M587.664,304.971c-0.415-0.904-0.843-1.801-1.283-2.69l0.896-0.443c0.444,0.897,0.876,1.804,1.295,2.716L587.664,304.971z
		 M398.522,302.479l-0.897-0.441c0.445-0.905,0.903-1.804,1.374-2.694l0.884,0.467C399.416,300.692,398.963,301.581,398.522,302.479
		z M585.021,299.628c-0.467-0.879-0.945-1.751-1.435-2.615l0.869-0.493c0.495,0.873,0.978,1.753,1.448,2.64L585.021,299.628z
		 M401.317,297.184l-0.87-0.492c0.496-0.877,1.004-1.748,1.525-2.609l0.855,0.518C402.312,295.453,401.809,296.314,401.317,297.184z
		 M582.077,294.439c-0.515-0.851-1.043-1.693-1.582-2.528l0.84-0.543c0.545,0.843,1.077,1.694,1.598,2.554L582.077,294.439z
		 M404.41,292.059l-0.841-0.541c0.545-0.848,1.102-1.687,1.67-2.518l0.825,0.564C405.502,290.388,404.95,291.219,404.41,292.059z
		 M578.843,289.428c-0.563-0.821-1.14-1.633-1.726-2.437l0.809-0.59c0.592,0.811,1.172,1.631,1.741,2.46L578.843,289.428z
		 M407.789,287.121l-0.809-0.588c0.592-0.814,1.195-1.62,1.81-2.417l0.792,0.611C408.974,285.517,408.375,286.314,407.789,287.121z
		 M575.323,284.605c-0.61-0.788-1.23-1.567-1.861-2.336l0.773-0.634c0.637,0.776,1.263,1.562,1.879,2.358L575.323,284.605z
		 M411.443,282.385l-0.774-0.633c0.638-0.779,1.286-1.549,1.944-2.31l0.756,0.655C412.716,280.851,412.074,281.614,411.443,282.385z
		 M571.535,279.987c-0.652-0.752-1.316-1.495-1.991-2.228l0.736-0.677c0.681,0.74,1.351,1.489,2.011,2.248L571.535,279.987z
		 M415.358,277.867l-0.737-0.676c0.68-0.741,1.371-1.473,2.072-2.195l0.717,0.697C416.715,276.409,416.031,277.133,415.358,277.867z
		 M567.49,275.59c-0.695-0.714-1.4-1.417-2.115-2.111l0.695-0.718c0.723,0.7,1.434,1.41,2.137,2.131L567.49,275.59z
		 M419.521,273.579l-0.697-0.717c0.721-0.701,1.451-1.392,2.192-2.073l0.677,0.736C420.958,272.2,420.235,272.885,419.521,273.579z
		 M563.2,271.428c-0.734-0.674-1.479-1.336-2.232-1.989l0.654-0.756c0.761,0.658,1.512,1.328,2.254,2.007L563.2,271.428z
		 M423.919,269.536l-0.655-0.755c0.759-0.659,1.527-1.307,2.305-1.944l0.634,0.773C425.433,268.242,424.671,268.884,423.919,269.536
		z M558.681,267.515c-0.771-0.631-1.552-1.25-2.343-1.859l0.611-0.792c0.797,0.615,1.585,1.24,2.364,1.877L558.681,267.515z
		 M428.539,265.75l-0.611-0.791c0.795-0.614,1.598-1.218,2.411-1.81l0.589,0.809C430.123,264.544,429.327,265.142,428.539,265.75z
		 M553.943,263.863c-0.807-0.586-1.622-1.16-2.445-1.724l0.564-0.825c0.831,0.568,1.654,1.148,2.469,1.74L553.943,263.863z
		 M433.364,262.234l-0.565-0.824c0.828-0.568,1.664-1.124,2.508-1.669l0.542,0.84C435.012,261.121,434.184,261.672,433.364,262.234z
		 M549.004,260.486c-0.839-0.539-1.686-1.066-2.54-1.582l0.516-0.856c0.864,0.521,1.719,1.053,2.565,1.597L549.004,260.486z
		 M438.378,259l-0.518-0.855c0.858-0.52,1.724-1.027,2.598-1.522l0.493,0.87C440.085,257.983,439.228,258.486,438.378,259z
		 M543.879,257.396c-0.868-0.49-1.744-0.969-2.628-1.435l0.467-0.885c0.892,0.471,1.775,0.953,2.653,1.448L543.879,257.396z
		 M443.567,256.059l-0.469-0.884c0.886-0.469,1.779-0.927,2.68-1.371l0.442,0.896C445.329,255.141,444.444,255.593,443.567,256.059z
		 M538.582,254.603c-0.895-0.44-1.797-0.867-2.706-1.282l0.414-0.91c0.919,0.418,1.831,0.85,2.733,1.294L538.582,254.603z
		 M448.911,253.419l-0.417-0.909c0.911-0.417,1.828-0.823,2.752-1.215l0.391,0.921C450.722,252.604,449.813,253.006,448.911,253.419
		z M533.131,252.118c-0.919-0.388-1.846-0.763-2.777-1.125l0.361-0.932c0.941,0.365,1.876,0.744,2.805,1.135L533.131,252.118z
		 M454.396,251.092l-0.365-0.932c0.936-0.366,1.878-0.719,2.826-1.059l0.338,0.941C456.254,250.38,455.321,250.729,454.396,251.092z
		 M527.545,249.949c-0.942-0.334-1.889-0.656-2.841-0.963l0.307-0.951c0.962,0.311,1.918,0.635,2.868,0.972L527.545,249.949z
		 M460.021,249.076l-0.311-0.951c0.955-0.312,1.916-0.61,2.882-0.895l0.283,0.959C461.918,248.472,460.967,248.768,460.021,249.076z
		 M521.848,248.109c-0.955-0.278-1.915-0.544-2.881-0.795l0.252-0.968c0.976,0.254,1.945,0.522,2.908,0.803L521.848,248.109z
		 M465.753,247.387l-0.254-0.967c0.97-0.256,1.946-0.498,2.929-0.727l0.227,0.974C467.682,246.894,466.715,247.134,465.753,247.387z
		 M516.064,246.602c-0.97-0.223-1.943-0.433-2.922-0.628l0.195-0.98c0.988,0.198,1.972,0.409,2.951,0.634L516.064,246.602z
		 M471.573,246.03l-0.199-0.979c0.983-0.2,1.972-0.386,2.966-0.558l0.17,0.985C473.525,245.648,472.547,245.833,471.573,246.03z
		 M510.203,245.429c-0.979-0.167-1.964-0.32-2.953-0.459l0.141-0.99c0.997,0.141,1.991,0.295,2.98,0.464L510.203,245.429z
		 M477.462,245.011l-0.143-0.99c0.993-0.143,1.99-0.271,2.992-0.387l0.115,0.993C479.435,244.742,478.445,244.87,477.462,245.011z
		 M504.286,244.595c-0.988-0.111-1.979-0.208-2.976-0.291l0.084-0.996c1.004,0.083,2.005,0.181,3.003,0.293L504.286,244.595z
		 M483.399,244.329l-0.086-0.996c0.999-0.086,2.002-0.158,3.009-0.216l0.059,0.998C485.382,244.172,484.389,244.244,483.399,244.329
		z M498.33,244.098c-0.991-0.054-1.986-0.095-2.986-0.122l0.027-1c1.008,0.027,2.013,0.068,3.014,0.123L498.33,244.098z
		 M489.366,243.985l-0.029-1c1.002-0.029,2.007-0.045,3.017-0.046l0.002,1C491.355,243.94,490.358,243.956,489.366,243.985z"/>
	<path opacity="0.8" fill="#E1392C" d="M144.604,697.207l-0.707-0.707l0.708-0.708l0.707,0.707L144.604,697.207z M147.434,694.378
		l-0.707-0.707l2.121-2.121l0.707,0.707L147.434,694.378z M151.676,690.135l-0.707-0.707l2.122-2.121l0.707,0.707L151.676,690.135z
		 M155.918,685.893l-0.707-0.707l2.122-2.121l0.707,0.707L155.918,685.893z M160.161,681.649l-0.707-0.707l2.122-2.121l0.707,0.707
		L160.161,681.649z M164.404,677.407l-0.707-0.707l2.122-2.121l0.707,0.707L164.404,677.407z M168.646,673.164l-0.707-0.707
		l2.121-2.121l0.707,0.707L168.646,673.164z M172.889,668.922l-0.707-0.707l2.121-2.121l0.707,0.707L172.889,668.922z
		 M177.132,664.68l-0.707-0.707l2.121-2.122l0.707,0.707L177.132,664.68z M181.375,660.437l-0.707-0.707l2.121-2.121l0.707,0.707
		L181.375,660.437z M185.617,656.194l-0.707-0.707l2.121-2.122l0.707,0.707L185.617,656.194z M189.86,651.951l-0.707-0.707
		l2.121-2.121l0.707,0.707L189.86,651.951z M194.103,647.709l-0.707-0.707l2.121-2.122l0.707,0.707L194.103,647.709z
		 M198.345,643.466l-0.707-0.707l2.122-2.121l0.707,0.707L198.345,643.466z M202.587,639.224l-0.707-0.707l2.122-2.121l0.707,0.707
		L202.587,639.224z M206.83,634.98l-0.707-0.707l2.122-2.121l0.707,0.707L206.83,634.98z M211.073,630.738l-0.707-0.707l2.122-2.121
		l0.707,0.707L211.073,630.738z M215.315,626.495l-0.707-0.707l2.121-2.121l0.707,0.707L215.315,626.495z M219.558,622.253
		l-0.707-0.707l2.121-2.121l0.707,0.707L219.558,622.253z M223.801,618.011l-0.707-0.707l2.121-2.122l0.707,0.707L223.801,618.011z
		 M228.043,613.768l-0.707-0.707l2.121-2.121l0.707,0.707L228.043,613.768z M232.286,609.525l-0.707-0.707l2.121-2.122l0.707,0.707
		L232.286,609.525z M236.528,605.282l-0.707-0.707l2.122-2.121l0.707,0.707L236.528,605.282z M240.771,601.04l-0.707-0.707
		l2.122-2.121l0.707,0.707L240.771,601.04z M245.014,596.797l-0.707-0.707l2.122-2.121l0.707,0.707L245.014,596.797z
		 M249.256,592.555l-0.707-0.707l2.122-2.121l0.707,0.707L249.256,592.555z M253.499,588.312l-0.707-0.707l2.121-2.121l0.707,0.707
		L253.499,588.312z M257.742,584.069l-0.707-0.707l2.121-2.121l0.707,0.707L257.742,584.069z M261.984,579.827l-0.707-0.707
		l2.121-2.122l0.707,0.707L261.984,579.827z M266.227,575.584l-0.707-0.707l2.121-2.121l0.707,0.707L266.227,575.584z
		 M270.47,571.342l-0.707-0.707l2.121-2.122l0.707,0.707L270.47,571.342z M274.712,567.099l-0.707-0.707l2.121-2.121l0.707,0.707
		L274.712,567.099z M278.955,562.856l-0.707-0.707l2.121-2.122l0.707,0.707L278.955,562.856z M283.197,558.613l-0.707-0.707
		l2.122-2.121l0.707,0.707L283.197,558.613z M287.44,554.371l-0.707-0.707l2.122-2.121l0.707,0.707L287.44,554.371z
		 M291.683,550.128l-0.707-0.707l2.122-2.121l0.707,0.707L291.683,550.128z M295.925,545.886l-0.707-0.707l2.122-2.121l0.707,0.707
		L295.925,545.886z M300.168,541.643l-0.707-0.707l2.121-2.121l0.707,0.707L300.168,541.643z M304.411,537.4l-0.707-0.707
		l2.121-2.121l0.707,0.707L304.411,537.4z M308.653,533.157l-0.707-0.707l2.121-2.121l0.707,0.707L308.653,533.157z
		 M312.896,528.915l-0.707-0.707l2.121-2.121l0.707,0.707L312.896,528.915z M317.139,524.673l-0.707-0.707l2.121-2.122l0.707,0.707
		L317.139,524.673z M321.381,520.43l-0.707-0.707l2.122-2.121l0.707,0.707L321.381,520.43z M325.624,516.188l-0.707-0.707
		l2.122-2.122l0.707,0.707L325.624,516.188z M329.866,511.944l-0.707-0.707l2.122-2.121l0.707,0.707L329.866,511.944z
		 M334.109,507.702l-0.707-0.707l2.122-2.121l0.707,0.707L334.109,507.702z M338.352,503.459l-0.707-0.707l2.121-2.121l0.707,0.707
		L338.352,503.459z M342.594,499.217l-0.707-0.707l2.121-2.121l0.707,0.707L342.594,499.217z M346.837,494.974l-0.707-0.707
		l2.121-2.121l0.707,0.707L346.837,494.974z M351.08,490.731l-0.707-0.707l2.121-2.121l0.707,0.707L351.08,490.731z
		 M355.322,486.489l-0.707-0.707l2.121-2.122l0.707,0.707L355.322,486.489z M359.565,482.246l-0.707-0.707l2.121-2.121l0.707,0.707
		L359.565,482.246z M363.807,478.004l-0.707-0.707l2.122-2.122l0.707,0.707L363.807,478.004z M368.05,473.761l-0.707-0.707
		l2.122-2.121l0.707,0.707L368.05,473.761z M372.292,469.519l-0.707-0.707l2.122-2.122l0.707,0.707L372.292,469.519z
		 M376.535,465.275l-0.707-0.707l2.122-2.121l0.707,0.707L376.535,465.275z M380.778,461.033l-0.707-0.707l2.122-2.121l0.707,0.707
		L380.778,461.033z M385.021,456.79l-0.707-0.707l2.121-2.121l0.707,0.707L385.021,456.79z M389.263,452.548l-0.707-0.707
		l2.121-2.121l0.707,0.707L389.263,452.548z M393.506,448.305l-0.707-0.707l2.121-2.121l0.707,0.707L393.506,448.305z
		 M397.749,444.062l-0.707-0.707l2.121-2.121l0.707,0.707L397.749,444.062z M401.991,439.82l-0.707-0.707l2.121-2.122l0.707,0.707
		L401.991,439.82z M406.233,435.577l-0.707-0.707l2.122-2.121l0.707,0.707L406.233,435.577z M410.476,431.335l-0.707-0.707
		l2.122-2.122l0.707,0.707L410.476,431.335z M414.719,427.092l-0.707-0.707l2.122-2.121l0.707,0.707L414.719,427.092z
		 M418.961,422.85l-0.707-0.707l2.122-2.122l0.707,0.707L418.961,422.85z M423.204,418.606l-0.707-0.707l2.121-2.121l0.707,0.707
		L423.204,418.606z M427.447,414.364l-0.707-0.707l2.121-2.121l0.707,0.707L427.447,414.364z M431.689,410.121l-0.707-0.707
		l2.121-2.121l0.707,0.707L431.689,410.121z M435.932,405.879l-0.707-0.707l2.121-2.121l0.707,0.707L435.932,405.879z
		 M440.175,401.636l-0.707-0.707l2.121-2.121l0.707,0.707L440.175,401.636z M444.417,397.394l-0.707-0.707l2.121-2.121l0.707,0.707
		L444.417,397.394z M448.66,393.151l-0.707-0.707l2.122-2.122l0.707,0.707L448.66,393.151z M452.902,388.908l-0.707-0.707
		l2.121-2.121l0.707,0.707L452.902,388.908z M457.146,384.666l-0.707-0.707l2.121-2.122l0.707,0.707L457.146,384.666z
		 M461.388,380.423l-0.707-0.707l2.121-2.121l0.707,0.707L461.388,380.423z M465.631,376.181l-0.707-0.707l2.121-2.121l0.707,0.707
		L465.631,376.181z M469.873,371.938l-0.707-0.707l2.121-2.121l0.707,0.707L469.873,371.938z M474.115,367.695l-0.707-0.707
		l2.122-2.121l0.707,0.707L474.115,367.695z M478.358,363.452l-0.707-0.707l2.121-2.121l0.707,0.707L478.358,363.452z
		 M482.601,359.21l-0.707-0.707l2.122-2.121l0.707,0.707L482.601,359.21z M486.844,354.968l-0.707-0.707l2.121-2.122l0.707,0.707
		L486.844,354.968z M491.086,350.725l-0.707-0.707l2.121-2.121l0.707,0.707L491.086,350.725z M495.329,346.482l-0.707-0.707
		l2.121-2.122l0.707,0.707L495.329,346.482z M499.571,342.239l-0.707-0.707l2.121-2.121l0.707,0.707L499.571,342.239z
		 M503.814,337.997l-0.707-0.707l2.121-2.122l0.707,0.707L503.814,337.997z M508.057,333.754l-0.707-0.707l2.121-2.121l0.707,0.707
		L508.057,333.754z M512.299,329.512l-0.707-0.707l2.122-2.121l0.707,0.707L512.299,329.512z M516.542,325.269l-0.707-0.707
		l2.121-2.121l0.707,0.707L516.542,325.269z M520.784,321.026l-0.707-0.707l2.122-2.121l0.707,0.707L520.784,321.026z
		 M525.027,316.783l-0.707-0.707l2.121-2.121l0.707,0.707L525.027,316.783z M529.27,312.541l-0.707-0.707l2.121-2.121l0.707,0.707
		L529.27,312.541z M533.513,308.298l-0.707-0.707l2.121-2.121l0.707,0.707L533.513,308.298z M537.755,304.056l-0.707-0.707
		l2.121-2.121l0.707,0.707L537.755,304.056z M541.998,299.813l-0.707-0.707l2.121-2.122l0.707,0.707L541.998,299.813z
		 M546.24,295.57l-0.707-0.707l2.121-2.121l0.707,0.707L546.24,295.57z M550.482,291.328l-0.707-0.707l2.122-2.122l0.707,0.707
		L550.482,291.328z M554.726,287.085l-0.707-0.707l2.121-2.121l0.707,0.707L554.726,287.085z M558.968,282.843l-0.707-0.707
		l2.122-2.122l0.707,0.707L558.968,282.843z M563.211,278.6l-0.707-0.707l2.121-2.122l0.707,0.707L563.211,278.6z M567.453,274.357
		l-0.707-0.707l2.122-2.122l0.707,0.707L567.453,274.357z M571.696,270.115l-0.707-0.707l2.121-2.122l0.707,0.707L571.696,270.115z
		 M575.938,265.872l-0.707-0.707l2.121-2.121l0.707,0.707L575.938,265.872z M580.182,261.629l-0.707-0.707l2.121-2.121l0.707,0.707
		L580.182,261.629z M584.424,257.387l-0.707-0.707l2.121-2.121l0.707,0.707L584.424,257.387z M588.667,253.144l-0.707-0.707
		l2.121-2.121l0.707,0.707L588.667,253.144z M592.909,248.901l-0.707-0.707l2.121-2.121l0.707,0.707L592.909,248.901z
		 M597.151,244.659l-0.707-0.707l2.122-2.121l0.707,0.707L597.151,244.659z M601.395,240.417l-0.707-0.707l2.121-2.122l0.707,0.707
		L601.395,240.417z M605.637,236.174l-0.707-0.707l2.122-2.122l0.707,0.707L605.637,236.174z M609.88,231.931l-0.707-0.707
		l2.121-2.122l0.707,0.707L609.88,231.931z M614.122,227.688l-0.707-0.707l2.121-2.122l0.707,0.707L614.122,227.688z
		 M618.365,223.446l-0.707-0.707l2.121-2.122l0.707,0.707L618.365,223.446z M622.607,219.203l-0.707-0.707l2.121-2.121l0.707,0.707
		L622.607,219.203z M626.851,214.96l-0.707-0.707l2.121-2.121l0.707,0.707L626.851,214.96z M631.093,210.718l-0.707-0.707
		l2.121-2.121l0.707,0.707L631.093,210.718z M635.336,206.475l-0.707-0.707l2.121-2.121l0.707,0.707L635.336,206.475z
		 M639.578,202.232l-0.707-0.707l2.121-2.121l0.707,0.707L639.578,202.232z M643.82,197.99l-0.707-0.707l2.122-2.121l0.707,0.707
		L643.82,197.99z M648.063,193.748l-0.707-0.707l2.121-2.122l0.707,0.707L648.063,193.748z M652.306,189.505l-0.707-0.707
		l2.122-2.122l0.707,0.707L652.306,189.505z M656.549,185.262l-0.707-0.707l2.121-2.122l0.707,0.707L656.549,185.262z
		 M660.791,181.02l-0.707-0.707l2.121-2.122l0.707,0.707L660.791,181.02z M665.034,176.777l-0.707-0.707l2.121-2.122l0.707,0.707
		L665.034,176.777z M669.276,172.534l-0.707-0.707l2.121-2.121l0.707,0.707L669.276,172.534z M673.52,168.292l-0.707-0.707
		l2.121-2.121l0.707,0.707L673.52,168.292z M677.762,164.049l-0.707-0.707l2.121-2.121l0.707,0.707L677.762,164.049z
		 M682.005,159.806l-0.707-0.707l2.121-2.121l0.707,0.707L682.005,159.806z M686.247,155.563l-0.707-0.707l2.121-2.121l0.707,0.707
		L686.247,155.563z M690.489,151.321l-0.707-0.707l2.122-2.121l0.707,0.707L690.489,151.321z M694.732,147.078l-0.707-0.707
		l2.121-2.121l0.707,0.707L694.732,147.078z M698.975,142.835l-0.707-0.707l2.122-2.121l0.707,0.707L698.975,142.835z
		 M703.218,138.593l-0.707-0.707l2.121-2.121l0.707,0.707L703.218,138.593z M707.46,134.35l-0.707-0.707l2.122-2.121l0.707,0.707
		L707.46,134.35z M711.703,130.107l-0.707-0.707l2.121-2.121l0.707,0.707L711.703,130.107z M715.945,125.865l-0.707-0.707
		l2.122-2.122l0.707,0.707L715.945,125.865z M720.188,121.623l-0.707-0.707l2.121-2.122l0.707,0.707L720.188,121.623z
		 M724.431,117.38l-0.707-0.707l2.121-2.122l0.707,0.707L724.431,117.38z M728.674,113.137l-0.707-0.707l2.121-2.122l0.707,0.707
		L728.674,113.137z M732.916,108.895l-0.707-0.707l2.121-2.122l0.707,0.707L732.916,108.895z M737.159,104.652l-0.707-0.707
		l2.121-2.122l0.707,0.707L737.159,104.652z M741.401,100.409l-0.707-0.707l2.121-2.122l0.707,0.707L741.401,100.409z
		 M745.645,96.167l-0.707-0.707l2.121-2.122l0.707,0.707L745.645,96.167z M749.887,91.924l-0.707-0.707l2.121-2.121l0.707,0.707
		L749.887,91.924z M754.13,87.681l-0.707-0.707l2.121-2.121l0.707,0.707L754.13,87.681z M758.372,83.438l-0.707-0.707l2.121-2.121
		l0.707,0.707L758.372,83.438z M762.614,79.196l-0.707-0.707l2.122-2.121l0.707,0.707L762.614,79.196z M766.857,74.953l-0.707-0.707
		l2.121-2.121l0.707,0.707L766.857,74.953z M771.1,70.71l-0.707-0.707l2.122-2.121l0.707,0.707L771.1,70.71z M775.343,66.468
		l-0.707-0.707l2.121-2.121l0.707,0.707L775.343,66.468z M779.585,62.225l-0.707-0.707L781,59.397l0.707,0.707L779.585,62.225z
		 M783.828,57.983l-0.707-0.707l2.121-2.122l0.707,0.707L783.828,57.983z M788.07,53.74l-0.707-0.707l2.121-2.122l0.707,0.707
		L788.07,53.74z M792.313,49.498l-0.707-0.707l2.121-2.122l0.707,0.707L792.313,49.498z M796.556,45.255l-0.707-0.707l2.121-2.122
		l0.707,0.707L796.556,45.255z M800.799,41.012l-0.707-0.707l2.121-2.122l0.707,0.707L800.799,41.012z M805.041,36.77l-0.707-0.707
		l2.121-2.122l0.707,0.707L805.041,36.77z M809.284,32.527l-0.707-0.707l2.121-2.121l0.707,0.707L809.284,32.527z M813.526,28.284
		l-0.707-0.707l2.121-2.121l0.707,0.707L813.526,28.284z M817.769,24.042l-0.707-0.707l2.122-2.121l0.707,0.707L817.769,24.042z
		 M822.012,19.799l-0.707-0.707l2.121-2.121l0.707,0.707L822.012,19.799z M826.254,15.556l-0.707-0.707l2.122-2.121l0.707,0.707
		L826.254,15.556z M830.497,11.313l-0.707-0.707l2.121-2.121l0.707,0.707L830.497,11.313z M834.739,7.071l-0.707-0.707l2.122-2.121
		l0.707,0.707L834.739,7.071z M838.982,2.828l-0.707-0.707L840.396,0l0.707,0.707L838.982,2.828z"/>
	<path opacity="0.5" fill="#FFFFFF" d="M985.001,349.104h-3v-1h3V349.104z M979.001,349.104h-3v-1h3V349.104z M973.001,349.104h-3
		v-1h3V349.104z M967.001,349.104h-3v-1h3V349.104z M961.001,349.104h-3v-1h3V349.104z M955.001,349.104h-3v-1h3V349.104z
		 M949.001,349.104h-3v-1h3V349.104z M943.001,349.104h-3v-1h3V349.104z M937.001,349.104h-3v-1h3V349.104z M931.001,349.104h-3v-1
		h3V349.104z M925.001,349.104h-3v-1h3V349.104z M919.001,349.104h-3v-1h3V349.104z M913.001,349.104h-3v-1h3V349.104z
		 M907.001,349.104h-3v-1h3V349.104z M901.001,349.104h-3v-1h3V349.104z M895.001,349.104h-3v-1h3V349.104z M889.001,349.104h-3v-1
		h3V349.104z M883.001,349.104h-3v-1h3V349.104z M877.001,349.104h-3v-1h3V349.104z M871.001,349.104h-3v-1h3V349.104z
		 M865.001,349.104h-3v-1h3V349.104z M859.001,349.104h-3v-1h3V349.104z M853.001,349.104h-3v-1h3V349.104z M847.001,349.104h-3v-1
		h3V349.104z M841.001,349.104h-3v-1h3V349.104z M835.001,349.104h-3v-1h3V349.104z M829.001,349.104h-3v-1h3V349.104z
		 M823.001,349.104h-3v-1h3V349.104z M817.001,349.104h-3v-1h3V349.104z M811.001,349.104h-3v-1h3V349.104z M805.001,349.104h-3v-1
		h3V349.104z M799.001,349.104h-3v-1h3V349.104z M793.001,349.104h-3v-1h3V349.104z M787.001,349.104h-3v-1h3V349.104z
		 M781.001,349.104h-3v-1h3V349.104z M775.001,349.104h-3v-1h3V349.104z M769.001,349.104h-3v-1h3V349.104z M763.001,349.104h-3v-1
		h3V349.104z M757.001,349.104h-3v-1h3V349.104z M751.001,349.104h-3v-1h3V349.104z M745.001,349.104h-3v-1h3V349.104z
		 M739.001,349.104h-3v-1h3V349.104z M733.001,349.104h-3v-1h3V349.104z M727.001,349.104h-3v-1h3V349.104z M721.001,349.104h-3v-1
		h3V349.104z M715.001,349.104h-3v-1h3V349.104z M709.001,349.104h-3v-1h3V349.104z M703.001,349.104h-3v-1h3V349.104z
		 M697.001,349.104h-3v-1h3V349.104z M691.001,349.104h-3v-1h3V349.104z M685.001,349.104h-3v-1h3V349.104z M679.001,349.104h-3v-1
		h3V349.104z M673.001,349.104h-3v-1h3V349.104z M667.001,349.104h-3v-1h3V349.104z M661.001,349.104h-3v-1h3V349.104z
		 M655.001,349.104h-3v-1h3V349.104z M649.001,349.104h-3v-1h3V349.104z M643.001,349.104h-3v-1h3V349.104z M637.001,349.104h-3v-1
		h3V349.104z M631.001,349.104h-3v-1h3V349.104z M625.001,349.104h-3v-1h3V349.104z M619.001,349.104h-3v-1h3V349.104z
		 M613.001,349.104h-3v-1h3V349.104z M607.001,349.104h-3v-1h3V349.104z M601.001,349.104h-3v-1h3V349.104z M595.001,349.104h-3v-1
		h3V349.104z M589.001,349.104h-3v-1h3V349.104z M583.001,349.104h-3v-1h3V349.104z M577.001,349.104h-3v-1h3V349.104z
		 M571.001,349.104h-3v-1h3V349.104z M565.001,349.104h-3v-1h3V349.104z M559.001,349.104h-3v-1h3V349.104z M553.001,349.104h-3v-1
		h3V349.104z M547.001,349.104h-3v-1h3V349.104z M541.001,349.104h-3v-1h3V349.104z M535.001,349.104h-3v-1h3V349.104z
		 M529.001,349.104h-3v-1h3V349.104z M523.001,349.104h-3v-1h3V349.104z M517.001,349.104h-3v-1h3V349.104z M511.001,349.104h-3v-1
		h3V349.104z M505.001,349.104h-3v-1h3V349.104z M499.001,349.104h-3v-1h3V349.104z M493.001,349.104h-3v-1h3V349.104z
		 M487.001,349.104h-3v-1h3V349.104z M481.001,349.104h-3v-1h3V349.104z M475.001,349.104h-2.999v-1h2.999V349.104z
		 M469.002,349.104h-3v-1h3V349.104z M463.002,349.104h-3v-1h3V349.104z M457.002,349.104h-3v-1h3V349.104z M451.001,349.104h-3v-1
		h3V349.104z M445.001,349.104h-3v-1h3V349.104z M439.001,349.104h-3v-1h3V349.104z M433.001,349.104h-3v-1h3V349.104z
		 M427.001,349.104h-3v-1h3V349.104z M421.001,349.104h-3v-1h3V349.104z M415.001,349.104h-3v-1h3V349.104z M409.001,349.104h-3v-1
		h3V349.104z M403.001,349.104h-3v-1h3V349.104z M397.001,349.104h-3v-1h3V349.104z M391.001,349.104h-3v-1h3V349.104z
		 M385.001,349.104h-3v-1h3V349.104z M379.001,349.104h-3v-1h3V349.104z M373.001,349.104h-3v-1h3V349.104z M367.001,349.104h-3v-1
		h3V349.104z M361.001,349.104h-3v-1h3V349.104z M355.001,349.104h-3v-1h3V349.104z M349.001,349.104h-3v-1h3V349.104z
		 M343.001,349.104h-3v-1h3V349.104z M337.001,349.104h-3v-1h3V349.104z M331.001,349.104h-3v-1h3V349.104z M325.001,349.104h-3v-1
		h3V349.104z M319.001,349.104h-3v-1h3V349.104z M313.001,349.104h-3v-1h3V349.104z M307.001,349.104h-3v-1h3V349.104z
		 M301.001,349.104h-3v-1h3V349.104z M295.001,349.104h-3v-1h3V349.104z M289.002,349.104h-3v-1h3V349.104z M283.002,349.104h-3v-1
		h3V349.104z M277.002,349.104h-3v-1h3V349.104z M271.002,349.104h-3v-1h3V349.104z M265.002,349.104h-3v-1h3V349.104z
		 M259.002,349.104h-3v-1h3V349.104z M253.002,349.104h-3v-1h3V349.104z M247.002,349.104h-3v-1h3V349.104z M241.002,349.104h-3v-1
		h3V349.104z M235.002,349.104h-3v-1h3V349.104z M229.002,349.104h-3v-1h3V349.104z M223.002,349.104h-3v-1h3V349.104z
		 M217.002,349.104h-3v-1h3V349.104z M211.002,349.104h-3v-1h3V349.104z M205.002,349.104h-3v-1h3V349.104z M199.002,349.104h-3v-1
		h3V349.104z M193.002,349.104h-3v-1h3V349.104z M187.002,349.104h-3v-1h3V349.104z M181.002,349.104h-3v-1h3V349.104z
		 M175.002,349.104h-3v-1h3V349.104z M169.002,349.104h-3v-1h3V349.104z M163.002,349.104h-3v-1h3V349.104z M157.002,349.104h-3v-1
		h3V349.104z M151.002,349.104h-3v-1h3V349.104z M145.002,349.104h-3v-1h3V349.104z M139.002,349.104h-3v-1h3V349.104z
		 M133.002,349.104h-3v-1h3V349.104z M127.002,349.104h-3v-1h3V349.104z M121.002,349.104h-3v-1h3V349.104z M115.002,349.104h-3v-1
		h3V349.104z M109.002,349.104h-3v-1h3V349.104z M103.002,349.104h-3v-1h3V349.104z M97.002,349.104h-3v-1h3V349.104z
		 M91.002,349.104h-3v-1h3V349.104z M85.002,349.104h-3v-1h3V349.104z M79.002,349.104h-3v-1h3V349.104z M73.002,349.104h-3v-1h3
		V349.104z M67.002,349.104h-3v-1h3V349.104z M61.002,349.104h-3v-1h3V349.104z M55.002,349.104h-3v-1h3V349.104z M49.002,349.104
		h-3v-1h3V349.104z M43.002,349.104h-3v-1h3V349.104z M37.002,349.104h-3v-1h3V349.104z M31.002,349.104h-3v-1h3V349.104z
		 M25.002,349.104h-3v-1h3V349.104z M19.002,349.104h-3v-1h3V349.104z M13.002,349.104h-3v-1h3V349.104z M7.002,349.104h-3v-1h3
		V349.104z M1.002,349.104H0v-1h1.002V349.104z"/>
</g>
</svg>
