<?xml version="1.0" encoding="utf-8"?>
<!-- Generator: Adobe Illustrator 16.0.0, SVG Export Plug-In . SVG Version: 6.00 Build 0)  -->
<!DOCTYPE svg PUBLIC "-//W3C//DTD SVG 1.1//EN" "http://www.w3.org/Graphics/SVG/1.1/DTD/svg11.dtd">
<svg version="1.1" id="Layer_1" xmlns="http://www.w3.org/2000/svg" xmlns:xlink="http://www.w3.org/1999/xlink" x="0px" y="0px"
	 width="427.468px" height="446.977px" viewBox="0 234.539 427.468 446.977" enable-background="new 0 234.539 427.468 446.977"
	 xml:space="preserve">
<g id="Layer_1_2_">
	<g id="Layer_1_1_">
		<g>
			<path fill="#FFFFFF" d="M162.105,382.359c0,0,1.321-4.406-3.524-7.049c-4.846-2.645-8.81-5.285-8.81-5.285
				c0.881,2.201,2.643,10.57-3.524,17.619C155.057,388.966,162.105,382.359,162.105,382.359z"/>
			<path fill="#FFFFFF" d="M33.477,403.503c-3.855,1.75-4.699,18.793,0,19.969l1.322,0.148l-1.762-1.764
				C33.037,421.857,30.982,409.523,33.477,403.503z"/>
			<path fill="#FFFFFF" d="M177.963,501.001l-2.055-5.873c-1.469-0.588-3.523,0.293-3.523,0.293S174.439,500.707,177.963,501.001z"
				/>
			<path fill="#FFFFFF" d="M17.18,355.708c0,0-1.322,1.762-0.882,11.232c-0.661,9.908,1.026,23.172,1.982,19.82
				c0.44-1.543,4.785-19.492,3.524-26.432C21.363,357.91,17.18,355.708,17.18,355.708z"/>
			<path fill="#FFFFFF" d="M293.981,373.99c-1.377,0.99-3.744,1.871-4.569,2.973c0.385,1.266,2.277,0.801,3.994,1.598
				c4.411,2.041,8.614,5.615,9.221,6.885c3.084-2.789,3.358-11.287,2.533-11.619C302.736,374.65,296.349,376.302,293.981,373.99z"/>
			<ellipse fill="#FFFFFF" cx="285.446" cy="369.143" rx="2.376" ry="2.099"/>
			<ellipse fill="#FFFFFF" cx="135.234" cy="376.632" rx="2.643" ry="1.762"/>
			<path fill="#FFFFFF" d="M197.346,270.763c-1.762-0.585-39.352,3.524-37.59,11.453c1.763,7.929,15.86-9.983,37.297-9.69
				C198.814,271.939,197.346,270.763,197.346,270.763z"/>
			<path fill="#FFFFFF" d="M124.222,471.341c-0.881,1.762-0.881,3.523,0,5.285c0.881,1.762-9.251,3.084-10.132,5.727
				c-0.881,2.645,4.405,8.369,4.846,9.691c0.44,1.322-2.643,5.285-0.44,6.166c2.202,0.883,7.048,2.645,7.048,2.645
				s-2.643,4.404-0.881,4.846c3.084-0.439,6.607-8.369,11.013,1.762c7.048,1.762,18.942-3.521,20.704-8.811
				c1.321-8.811,0-22.465,0-22.465c0.881-7.488,8.369-18.062,6.167-22.906c-1.153-2.537-19.382,4.846-19.823,6.607
				c-0.44,1.762,0,2.643-3.083,4.846C136.556,466.935,125.103,469.578,124.222,471.341z"/>
			<ellipse fill="#FFFFFF" cx="141.401" cy="381.038" rx="1.763" ry="1.321"/>
			<g>
				<path fill="none" d="M277.958,570.894c-5.729-4.404-14.537-0.439-14.537-0.439s1.763,1.762,4.846,1.762
					C271.351,572.216,280.3,572.697,277.958,570.894z"/>
				<path fill="none" d="M272.893,399.097c0-2.201,8.149-4.404,21.806-7.047c-16.3,2.422-29.558-14.162-32.818-14.979
					c-1.762-0.439-5.506,2.645-5.506,2.645l0.881,2.201c0,0,0,1.102-4.846,3.525c1.541,0.656,6.827,7.047,6.827,7.047
					s0,0-1.542,2.861c0,3.967,18.723,7.709,18.723,7.709S273.773,401.74,272.893,399.097z"/>
				<path fill="none" d="M210.12,603.492c0,0,1.762,1.762,7.488,2.203c5.726,0.439,13.656-3.084,13.656-3.084
					s-14.097-0.881-18.501-0.881L210.12,603.492z"/>
				<path fill="none" d="M214.205,642.755c2.143,8.32,8.66,7.312,8.66,7.312c0-6.168-10.792-20.045-10.792-20.045
					C208.752,630.609,212.064,634.435,214.205,642.755z"/>
				<path fill="none" d="M234.935,501.589l2.352,3.523c0,0,15.271-3.523,16.444-9.396
					C249.619,490.431,241.396,496.302,234.935,501.589z"/>
				<path fill="none" d="M331.259,371.783v0.006C331.324,371.839,331.311,371.826,331.259,371.783z"/>
				<path fill="none" d="M214.085,576.181c1.762-0.439,3.083-2.643,3.083-2.643l1.765,1.762l3.083-2.645c0,0,1.32,1.764,7.93,1.32
					c-2.201-4.846-18.062-6.166-20.704-6.166c-1.394,0,0.44,10.57-0.44,14.535C213.204,578.382,212.323,576.621,214.085,576.181z"/>
				<path fill="none" d="M403.501,88.101c0,0-10.571,1.763-29.953,1.763c0-15.858-17.62-24.669-22.906-44.051
					c0-15.858-35.24-33.479-35.24-33.479s-3.523,7.048-26.431,19.382c0,0,1.762-10.571-5.286-31.716
					c-1.762,19.382-24.668,37.003-45.812,40.526c12.334-5.286,8.812-15.857,8.812-19.382c-31.719,28.192-44.051,12.334-68.72,15.858
					c-8.81-1.763-40.525,8.81-59.908,17.619l24.668-28.191c0,0-26.43,8.81-37.002,29.954c-3.524,5.286-12.334,17.62-12.334,12.334
					c0-5.286,5.285-29.954,5.285-29.954s-10.571,15.857-17.619,35.24C68.72,86.338,58.148,95.149,49.337,114.53
					c3.523-15.858-10.572-47.574-10.572-47.574s0,65.194-3.523,70.48c-3.524,5.286-22.906,33.479-26.431,70.481
					c-2.675,4.902-3.883,13.975-3.997,25.279l0.771-0.006c-1.05,23.405,1.31,60.472,16.441,106.437
					c-4.405,0-19.382-5.725-22.024,46.254c14.977,34.359,14.977,34.359,14.977,34.359s10.572,61.229,37.883,57.266
					c9.691,43.17,19.383,78.41,21.145,81.053c7.488,10.572,79.291,99.557,124.223,112.33l0.44-2.645
					c-3.524-7.488-8.37-21.584-7.488-28.191c0.881-6.605,7.488-12.771,6.607-14.537c-1.763-2.643-5.286-4.846-5.286-4.846
					l3.084-4.404l-15.418-7.93c11.453-1.322,22.906-3.965,22.906-3.965l-2.202-4.846l-17.62-10.133c-0.441-2.201,0-8.809,0-8.809
					s7.047-1.762,9.69-3.084c-2.202-1.762-2.202-1.762-2.202-1.762s2.643-3.969,6.167-4.406c3.523-0.439,3.083-5.285,3.083-5.285
					s3.084-4.406,5.286-3.523c2.203,0.881,2.644-1.764,2.644-1.764s-6.607-8.369-12.775-11.012
					c-3.083-11.014,1.322-26.432,9.691-33.037c-3.523-10.133-8.369-21.586-8.369-21.586s-3.084-5.285,8.369-19.822
					c1.763-17.18,1.763-18.941,4.846-23.787c2.644-8.369,8.37-84.578-2.643-96.031c-13.215-1.32-32.598-4.402-33.92-4.402
					c-1.32,0-6.166-7.49-39.204-6.168c23.347-13.656,41.848-29.513,48.456-26.43c6.607,3.083,14.536,7.93,15.857,8.37
					c1.322,0.438,7.488-12.774,11.453-36.123c10.571-4.405,13.655-5.286,17.62-5.727s0,15.417,0,15.417
					c6.166-2.201,11.453-3.964,11.453-3.964s-3.084-13.655-1.321-14.536c1.762-0.881,10.132,0.881,9.69,8.369
					c-2.645,5.727-5.285,8.369-5.285,8.369s-1.764,12.334,3.521,13.215c5.286,0.882,26.871-5.285,35.24-3.964
					c8.37,1.32,16.738,5.286,21.146,5.286c6.605-0.44,50.217-6.607,58.588,16.299c2.201,1.762,3.082-0.881,3.082-0.881
					s-0.439-22.468-22.905-46.254c-3.966,2.203-7.488,2.203-7.488,2.203s-26.871,3.084-29.515,2.203
					c-2.643-0.882-2.202-6.608-2.202-6.608c5.728-1.762,46.253-9.25,48.017-8.37c13.215,7.93,25.107,26.871,26.43,37.003
					c1.32,11.894,0.439,31.716,0.439,35.681c0,3.893,2.297,78.914,1.973,86.662c-1.057,4.707-2.172,9.775-3.324,15.076
					c1.803-7.578,3.559-14.994,3.556-14.959c3.964-8.811,9.688-76.207,15.417-87.219c-3.427-5.824-4.186-6.053-4.354-5.865
					l17.568-47.438c0,0,5.068-32.77,7.164-59.889l0.174-0.001c0.172-2.938,0.309-5.842,0.398-8.671
					c0.527-9.988,0.463-18.457-0.689-23.064c0,0,5.287-14.096,12.334-24.668c7.049-10.572-22.906-58.146-35.24-74.006
					L403.501,88.101z"/>
				<path fill="none" d="M223.189,544.466c0,0-2.393-18.203-6.462-17.621c-4.11,0.59-7.048,19.971-7.048,19.971
					s2.938,1.762,5.873,2.35C218.488,549.75,223.189,544.466,223.189,544.466z"/>
				<path fill="none" d="M266.064,372.375c4.629-4.629,9.416-7.807,14.195-9.891c-2.262,2.891-3.621,6.521-3.621,10.479
					c0,9.406,7.624,17.033,17.031,17.033c9.406,0,17.031-7.627,17.031-17.033c0-5.256-2.383-9.949-6.121-13.074
					c14.795,2.611,25.99,11.324,26.678,11.896l0.588-4.107c0,0-5.873-9.982-7.635-9.982s-8.812-0.586-8.812-0.586
					s0-2.354,4.699-3.523c0,0-7.05-7.049-25.845-10.572c-20.559-1.762-33.479,21.145-33.479,23.492
					C260.776,368.853,261.955,369.437,266.064,372.375z"/>
				<path d="M370.998,462.179c0.037,0,1.963-8.068,3.84-15.967c1.154-5.301,2.271-10.367,3.326-15.074
					C378.162,431.177,370.653,462.179,370.998,462.179z"/>
				<path fill="#FFFFFF" d="M376.19,344.474c0-3.965,0.881-23.787-0.44-35.68c-1.319-10.132-13.215-29.073-26.43-37.003
					c-1.763-0.88-42.289,6.608-48.016,8.37c0,0-0.439,5.727,2.201,6.608c2.645,0.881,29.516-2.203,29.516-2.203s3.523,0,7.488-2.203
					c22.466,23.789,22.906,46.254,22.906,46.254s-0.881,2.643-3.084,0.881c-8.369-22.906-51.979-16.739-58.588-16.299
					c-4.404,0-12.773-3.965-21.146-5.286c-8.369-1.321-29.954,4.846-35.24,3.964c-5.285-0.881-3.522-13.215-3.522-13.215
					s2.644-2.643,5.287-8.369c0.438-7.488-7.932-9.25-9.691-8.369c-1.762,0.881,1.32,14.536,1.32,14.536s-5.285,1.763-11.453,3.964
					c0,0,3.966-15.857,0-15.417c-3.965,0.44-7.047,1.321-17.619,5.727c-3.965,23.347-10.131,36.562-11.453,36.124
					c-1.321-0.441-9.25-5.287-15.857-8.37c-6.608-3.083-25.109,12.772-48.456,26.43c33.038-1.322,37.884,6.166,39.204,6.166
					c1.322,0,20.705,3.084,33.92,4.404c11.013,11.453,5.286,87.662,2.643,96.029c-3.083,4.848-3.083,6.607-4.846,23.787
					c-11.453,14.537-8.369,19.824-8.369,19.824s4.846,11.453,8.369,21.584c-8.369,6.607-12.774,22.025-9.691,33.037
					c6.168,2.645,12.775,11.014,12.775,11.014s-0.44,2.645-2.644,1.764c-2.202-0.883-5.286,3.521-5.286,3.521
					s0.44,4.846-3.083,5.287c-3.524,0.438-6.167,4.404-6.167,4.404s0,0,2.202,1.762c-2.644,1.322-9.69,3.084-9.69,3.084
					s-0.441,6.605,0,8.811l17.62,10.133l2.202,4.846c0,0-11.453,2.643-22.906,3.965l15.418,7.93l-3.084,4.404
					c0,0,3.523,2.201,5.286,4.846c0.881,1.764-5.727,7.932-6.607,14.535c-0.882,6.607,3.964,20.705,7.488,28.193l-0.44,2.645
					l10.86-1.135l17.077-1.783c44.934-12.773,117.896-103.092,124.334-114.334c2.969-5.184,14.916-64.104,24.34-107.426
					c-1.877,7.896-3.805,15.967-3.84,15.967c-0.345,0,7.164-31.004,7.166-31.041C378.487,423.388,376.19,348.367,376.19,344.474z
					 M294.257,343.009c18.795,3.523,25.844,10.572,25.844,10.572c-4.699,1.174-4.699,3.521-4.699,3.521s7.049,0.588,8.811,0.588
					c1.763,0,7.636,9.982,7.636,9.982l-0.589,4.107c0.054,0.043,0.066,0.057,0,0.004v-0.004
					c-0.687-0.572-11.883-9.283-26.678-11.896c3.739,3.125,6.121,7.818,6.121,13.074c0,9.406-7.625,17.033-17.031,17.033
					s-17.03-7.627-17.03-17.033c0-3.957,1.358-7.588,3.62-10.479c-4.778,2.084-9.565,5.262-14.194,9.891
					c-4.108-2.938-5.286-3.523-5.286-5.873C260.78,364.152,273.699,341.248,294.257,343.009z M256.373,379.716
					c0,0,3.744-3.084,5.508-2.645c3.262,0.812,16.52,17.398,32.816,14.979c-13.654,2.643-21.805,4.846-21.805,7.047
					c0.881,2.645,3.523,3.965,3.523,3.965s-18.724-3.742-18.724-7.709c1.542-2.861,1.542-2.861,1.542-2.861
					s-5.285-6.389-6.826-7.049c4.846-2.424,4.846-3.523,4.846-3.523L256.373,379.716z M268.267,572.216
					c-3.083,0-4.846-1.762-4.846-1.762s8.811-3.965,14.537,0.438C280.3,572.697,271.351,572.216,268.267,572.216z M253.73,495.716
					c-1.176,5.873-16.445,9.396-16.445,9.396l-2.351-3.523C241.396,496.302,249.619,490.431,253.73,495.716z M217.608,605.695
					c-5.727-0.441-7.488-2.203-7.488-2.203l2.644-1.762c4.403,0,18.501,0.881,18.501,0.881S223.335,606.134,217.608,605.695z
					 M222.865,650.066c0,0-6.518,1.01-8.66-7.311c-2.141-8.32-5.453-12.146-2.132-12.732
					C212.073,630.023,222.865,643.9,222.865,650.066z M216.728,526.845c4.07-0.582,6.462,17.621,6.462,17.621
					s-4.701,5.283-7.637,4.697c-2.936-0.586-5.873-2.352-5.873-2.352S212.617,527.435,216.728,526.845z M209.239,567.812
					c2.643,0,18.501,1.32,20.704,6.166c-6.607,0.441-7.93-1.32-7.93-1.32l-3.083,2.643l-1.763-1.762c0,0-1.321,2.203-3.083,2.643
					c-1.762,0.441-0.881,2.203-5.286,6.168C209.68,578.382,207.846,567.812,209.239,567.812z"/>
			</g>
		</g>
	</g>
</g>
</svg>
